<svg xmlns="http://www.w3.org/2000/svg" width="542.5120239257812" height="410.5381774902344"
  viewBox="-347.2337646484375 -153.73886108398438 542.5120239257812 410.5381774902344" style="background-color:white">
  <title>Neo4j Graph Visualization</title>
  <desc>Created using Neo4j (http://www.neo4j.com/)</desc>
  <g class="layer relationships">
    <g class="relationship" transform="translate(18.146360205250918 76.27159988830591) rotate(386.0215015089645)">
      <path class="b-outline" fill="#4C8EDA" stroke="none"
        d="M 32.5 1 L 52.00024702994483 1 L 52.00024702994483 -1 L 32.5 -1 Z M 101.13696577994483 1 L 120.63721280988966 1 L 120.63721280988966 4 L 128.63721280988966 0 L 120.63721280988966 -4 L 120.63721280988966 -1 L 101.13696577994483 -1 Z" />
      <text text-anchor="middle" pointer-events="none" font-size="8px" fill="#000000" x="76.56860640494483" y="3"
        font-family="Helvetica Neue, Helvetica, Arial, sans-serif">accordingTo</text>
    </g>
    <g class="relationship" transform="translate(18.146360205250918 76.27159988830591) rotate(443.2784946175842)">
      <path class="b-outline" fill="#C990C0" stroke="none"
        d="M 32.5 1.5 L 56.53234218001042 1.5 L 56.53234218001042 -1.5 L 32.5 -1.5 Z M 94.54406093001042 1.5 L 118.57640311002083 1.5 L 118.57640311002083 4.5 L 127.57640311002083 0 L 118.57640311002083 -4.5 L 118.57640311002083 -1.5 L 94.54406093001042 -1.5 Z" />
      <text text-anchor="middle" pointer-events="none" font-size="8px" fill="#000000" x="75.53820155501042" y="3"
        font-family="Helvetica Neue, Helvetica, Arial, sans-serif">synonym</text>
    </g>
    <g class="relationship" transform="translate(18.146360205250918 76.27159988830591) rotate(342.70934257486203)">
      <path class="b-outline" fill="#C990C0" stroke="none"
        d="M 32.5 1.5 L 57.81557684672771 1.5 L 57.81557684672771 -1.5 L 32.5 -1.5 Z M 95.82729559672771 1.5 L 121.14287244345542 1.5 L 121.14287244345542 4.5 L 130.14287244345542 0 L 121.14287244345542 -4.5 L 121.14287244345542 -1.5 L 95.82729559672771 -1.5 Z" />
      <text text-anchor="middle" pointer-events="none" font-size="8px" fill="#000000" x="76.82143622172771" y="3"
        font-family="Helvetica Neue, Helvetica, Arial, sans-serif">synonym</text>
    </g>
    <g class="relationship" transform="translate(18.146360205250918 76.27159988830591) rotate(305.22417470917594)">
      <path class="b-outline" fill="#C990C0" stroke="none"
        d="M 32.5 1.5 L 58.3063304958479 1.5 L 58.3063304958479 -1.5 L 32.5 -1.5 Z M 96.3180492458479 1.5 L 122.1243797416958 1.5 L 122.1243797416958 4.5 L 131.1243797416958 0 L 122.1243797416958 -4.5 L 122.1243797416958 -1.5 L 96.3180492458479 -1.5 Z" />
      <text text-anchor="middle" pointer-events="none" font-size="8px" fill="#000000" x="77.3121898708479" y="3"
        font-family="Helvetica Neue, Helvetica, Arial, sans-serif">synonym</text>
    </g>
    <g class="relationship" transform="translate(18.146360205250918 76.27159988830591) rotate(267.8487278224783)">
      <path class="b-outline" fill="#C990C0" stroke="none"
        d="M 32.5 1.5 L 57.94204989798328 1.5 L 57.94204989798328 -1.5 L 32.5 -1.5 Z M 95.95376864798328 1.5 L 121.39581854596656 1.5 L 121.39581854596656 4.5 L 130.39581854596656 0 L 121.39581854596656 -4.5 L 121.39581854596656 -1.5 L 95.95376864798328 -1.5 Z" />
      <text text-anchor="middle" pointer-events="none" font-size="8px" fill="#000000" x="76.94790927298328" y="3"
        transform="rotate(180 76.94790927298328 0)"
        font-family="Helvetica Neue, Helvetica, Arial, sans-serif">synonym</text>
    </g>
    <g class="relationship" transform="translate(18.146360205250918 76.27159988830591) rotate(226.69778972013523)">
      <path class="b-outline" fill="#FFC454" stroke="none"
        d="M 32.5 1.5 L 56.30478851336608 1.5 L 56.30478851336608 -1.5 L 32.5 -1.5 Z M 103.21494476336608 1.5 L 127.01973327673215 1.5 L 127.01973327673215 4.5 L 136.01973327673215 0 L 127.01973327673215 -4.5 L 127.01973327673215 -1.5 L 103.21494476336608 -1.5 Z" />
      <text text-anchor="middle" pointer-events="none" font-size="8px" fill="#000000" x="79.75986663836608" y="3"
        transform="rotate(180 79.75986663836608 0)"
        font-family="Helvetica Neue, Helvetica, Arial, sans-serif">taxonName</text>
    </g>
    <g class="relationship" transform="translate(-92.28844861316516 -40.909915316737624) rotate(213.85566918590473)">
      <path class="b-outline" fill="#F79767" stroke="none"
        d="M 25 1 L 51.11739502103811 1 L 51.11739502103811 -1 L 25 -1 Z M 91.3556762710381 1 L 117.47307129207621 1 L 117.47307129207621 4 L 125.47307129207621 0 L 117.47307129207621 -4 L 117.47307129207621 -1 L 91.3556762710381 -1 Z" />
      <text text-anchor="middle" pointer-events="none" font-size="8px" fill="#000000" x="71.2365356460381" y="3"
        transform="rotate(180 71.2365356460381 0)"
        font-family="Helvetica Neue, Helvetica, Arial, sans-serif">basionym</text>
    </g>
    <g class="relationship" transform="translate(-214.56953789900967 22.36987747746029) rotate(268.9569711679268)">
      <path class="b-outline" fill="#F79767" stroke="none"
        d="M 25 1 L 49.447425886775804 1 L 49.447425886775804 -1 L 25 -1 Z M 89.6857071367758 1 L 114.13313302355161 1 L 114.13313302355161 4 L 122.13313302355161 0 L 114.13313302355161 -4 L 114.13313302355161 -1 L 89.6857071367758 -1 Z" />
      <text text-anchor="middle" pointer-events="none" font-size="8px" fill="#000000" x="69.5665665117758" y="3"
        transform="rotate(180 69.5665665117758 0)"
        font-family="Helvetica Neue, Helvetica, Arial, sans-serif">basionym</text>
    </g>
    <g class="relationship" transform="translate(-318.23379673269363 -20.13481006439931) rotate(313.9917738285151)">
      <path class="b-outline" fill="#F79767" stroke="none"
        d="M 25 1 L 48.579163028869246 1 L 48.579163028869246 -1 L 25 -1 Z M 88.81744427886925 1 L 112.39660730773849 1 L 112.39660730773849 4 L 120.39660730773849 0 L 112.39660730773849 -4 L 112.39660730773849 -1 L 88.81744427886925 -1 Z" />
      <text text-anchor="middle" pointer-events="none" font-size="8px" fill="#000000" x="68.69830365386925" y="3"
        font-family="Helvetica Neue, Helvetica, Arial, sans-serif">basionym</text>
    </g>
  </g>
  <g class="layer nodes">
    <g class="node" aria-label="graph-node608" transform="translate(18.146360205250918,76.27159988830591)">
      <circle class="b-outline" cx="0" cy="0" r="32.5" fill="#8DCC93" stroke="#5db665" stroke-width="2px" /><text
        class="caption" text-anchor="middle" pointer-events="none" x="0" y="5" font-size="10px" fill="#2A2C34"
        font-family="Helvetica Neue, Helvetica, Arial, sans-serif"> </text>
    </g>
    <g class="node" aria-label="graph-node454" transform="translate(36.004437247620665,227.79931309727755)">
      <circle class="b-outline" cx="0" cy="0" r="25" fill="#F79767" stroke="#f36924" stroke-width="2px" /><text
        class="caption" text-anchor="middle" pointer-events="none" x="0" y="5" font-size="10px" fill="#FFFFFF"
        font-family="Helvetica Neue, Helvetica, Arial, sans-serif"> </text>
    </g>
    <g class="node" aria-label="graph-node649" transform="translate(156.20928802281819,143.6735369705036)">
      <circle class="b-outline" cx="0" cy="0" r="25" fill="#4C8EDA" stroke="#2870c2" stroke-width="2px" /><text
        class="caption" text-anchor="middle" pointer-events="none" x="0" y="5" font-size="10px" fill="#FFFFFF"
        font-family="Helvetica Neue, Helvetica, Arial, sans-serif"> </text>
    </g>
    <g class="node" aria-label="graph-node455" transform="translate(166.27821397662635,30.160161304564795)">
      <circle class="b-outline" cx="0" cy="0" r="25" fill="#F79767" stroke="#f36924" stroke-width="2px" /><text
        class="caption" text-anchor="middle" pointer-events="none" x="0" y="5" font-size="10px" fill="#FFFFFF"
        font-family="Helvetica Neue, Helvetica, Arial, sans-serif"> </text>
    </g>
    <g class="node" aria-label="graph-node456" transform="translate(108.19531804062505,-51.26665767581579)">
      <circle class="b-outline" cx="0" cy="0" r="25" fill="#F79767" stroke="#f36924" stroke-width="2px" /><text
        class="caption" text-anchor="middle" pointer-events="none" x="0" y="5" font-size="10px" fill="#FFFFFF"
        font-family="Helvetica Neue, Helvetica, Arial, sans-serif"> </text>
    </g>
    <g class="node" aria-label="graph-node534" transform="translate(12.313117993593057,-79.01469605203485)">
      <circle class="b-outline" cx="0" cy="0" r="25" fill="#F79767" stroke="#f36924" stroke-width="2px" /><text
        class="caption" text-anchor="middle" pointer-events="none" x="0" y="5" font-size="10px" fill="#FFFFFF"
        font-family="Helvetica Neue, Helvetica, Arial, sans-serif"> </text>
    </g>
    <g class="node" aria-label="graph-node445" transform="translate(-92.28844861316516,-40.909915316737624)">
      <circle class="b-outline" cx="0" cy="0" r="25" fill="#F79767" stroke="#f36924" stroke-width="2px" /><text
        class="caption" text-anchor="middle" pointer-events="none" x="0" y="5" font-size="10px" fill="#FFFFFF"
        font-family="Helvetica Neue, Helvetica, Arial, sans-serif"> </text>
    </g>
    <g class="node" aria-label="graph-node446" transform="translate(-217.24784379008858,-124.73887654785239)">
      <circle class="b-outline" cx="0" cy="0" r="25" fill="#F79767" stroke="#f36924" stroke-width="2px" /><text
        class="caption" text-anchor="middle" pointer-events="none" x="0" y="5" font-size="10px" fill="#FFFFFF"
        font-family="Helvetica Neue, Helvetica, Arial, sans-serif"> </text>
    </g>
    <g class="node" aria-label="graph-node447" transform="translate(-214.56953789900967,22.36987747746029)">
      <circle class="b-outline" cx="0" cy="0" r="25" fill="#F79767" stroke="#f36924" stroke-width="2px" /><text
        class="caption" text-anchor="middle" pointer-events="none" x="0" y="5" font-size="10px" fill="#FFFFFF"
        font-family="Helvetica Neue, Helvetica, Arial, sans-serif"> </text>
    </g>
    <g class="node" aria-label="graph-node448" transform="translate(-318.23379673269363,-20.13481006439931)">
      <circle class="b-outline" cx="0" cy="0" r="25" fill="#F79767" stroke="#f36924" stroke-width="2px" /><text
        class="caption" text-anchor="middle" pointer-events="none" x="0" y="5" font-size="10px" fill="#FFFFFF"
        font-family="Helvetica Neue, Helvetica, Arial, sans-serif"> </text>
    </g>
  </g>
</svg>