<svg xmlns="http://www.w3.org/2000/svg" width="412.516845703125" height="488.91925048828125" viewBox="-208.32015991210938 -237.9757843017578 412.516845703125 488.91925048828125"><title>Neo4j Graph Visualization</title><desc>Created using Neo4j (http://www.neo4j.com/)</desc><g class="layer relationships"><g class="relationship" transform="translate(22.663577718443687 86.47233948009175) rotate(357.04757266435956)"><path class="b-outline" fill="#4C8EDA" stroke="none" d="M 32.5 1 L 51.54956011775192 1 L 51.54956011775192 -1 L 32.5 -1 Z M 100.68627886775192 1 L 119.73583898550385 1 L 119.73583898550385 4 L 127.73583898550385 0 L 119.73583898550385 -4 L 119.73583898550385 -1 L 100.68627886775192 -1 Z"/><text text-anchor="middle" pointer-events="none" font-size="8px" fill="#000000" x="76.11791949275192" y="3" font-family="Helvetica Neue, Helvetica, Arial, sans-serif">accordingTo</text></g><g class="relationship" transform="translate(22.663577718443687 86.47233948009175) rotate(423.9828029376906)"><path class="b-outline" fill="#C990C0" stroke="none" d="M 32.5 1.5 L 55.61786983272752 1.5 L 55.61786983272752 -1.5 L 32.5 -1.5 Z M 93.62958858272752 1.5 L 116.74745841545504 1.5 L 116.74745841545504 4.5 L 125.74745841545504 0 L 116.74745841545504 -4.5 L 116.74745841545504 -1.5 L 93.62958858272752 -1.5 Z"/><text text-anchor="middle" pointer-events="none" font-size="8px" fill="#000000" x="74.62372920772752" y="3" font-family="Helvetica Neue, Helvetica, Arial, sans-serif">synonym</text></g><g class="relationship" transform="translate(22.663577718443687 86.47233948009175) rotate(307.12336033866126)"><path class="b-outline" fill="#C990C0" stroke="none" d="M 32.5 1.5 L 57.062701667060935 1.5 L 57.062701667060935 -1.5 L 32.5 -1.5 Z M 95.07442041706094 1.5 L 119.63712208412187 1.5 L 119.63712208412187 4.5 L 128.63712208412187 0 L 119.63712208412187 -4.5 L 119.63712208412187 -1.5 L 95.07442041706094 -1.5 Z"/><text text-anchor="middle" pointer-events="none" font-size="8px" fill="#000000" x="76.06856104206094" y="3" font-family="Helvetica Neue, Helvetica, Arial, sans-serif">synonym</text></g><g class="relationship" transform="translate(22.663577718443687 86.47233948009175) rotate(249.7955404135633)"><path class="b-outline" fill="#FFC454" stroke="none" d="M 32.5 1.5 L 58.92786244867274 1.5 L 58.92786244867274 -1.5 L 32.5 -1.5 Z M 105.83801869867274 1.5 L 132.26588114734548 1.5 L 132.26588114734548 4.5 L 141.26588114734548 0 L 132.26588114734548 -4.5 L 132.26588114734548 -1.5 L 105.83801869867274 -1.5 Z"/><text text-anchor="middle" pointer-events="none" font-size="8px" fill="#000000" x="82.38294057367274" y="3" transform="rotate(180 82.38294057367274 0)" font-family="Helvetica Neue, Helvetica, Arial, sans-serif">taxonName</text></g><g class="relationship" transform="translate(-72.65976409633781 -208.97579092138568) rotate(434.7915225163591)"><path class="b-outline" fill="#F79767" stroke="none" d="M 25 1 L 48.11736362802684 1 L 48.11736362802684 -1 L 25 -1 Z M 88.35564487802684 1 L 111.47300850605367 1 L 111.47300850605367 4 L 119.47300850605367 0 L 111.47300850605367 -4 L 111.47300850605367 -1 L 88.35564487802684 -1 Z"/><text text-anchor="middle" pointer-events="none" font-size="8px" fill="#000000" x="68.23650425302684" y="3" font-family="Helvetica Neue, Helvetica, Arial, sans-serif">basionym</text></g><g class="relationship" transform="translate(-179.32015249001364 -79.82891657578406) rotate(364.06220126945783)"><path class="b-outline" fill="#F79767" stroke="none" d="M 25 1 L 48.34304159246955 1 L 48.34304159246955 -1 L 25 -1 Z M 88.58132284246955 1 L 111.9243644349391 1 L 111.9243644349391 4 L 119.9243644349391 0 L 111.9243644349391 -4 L 111.9243644349391 -1 L 88.58132284246955 -1 Z"/><text text-anchor="middle" pointer-events="none" font-size="8px" fill="#000000" x="68.46218221746955" y="3" font-family="Helvetica Neue, Helvetica, Arial, sans-serif">basionym</text></g><g class="relationship" transform="translate(-124.78738129942123 45.188013415326935) rotate(308.1159394700298)"><path class="b-outline" fill="#F79767" stroke="none" d="M 25 1 L 48.806585090902004 1 L 48.806585090902004 -1 L 25 -1 Z M 89.044866340902 1 L 112.85145143180401 1 L 112.85145143180401 4 L 120.85145143180401 0 L 112.85145143180401 -4 L 112.85145143180401 -1 L 89.044866340902 -1 Z"/><text text-anchor="middle" pointer-events="none" font-size="8px" fill="#000000" x="68.925725715902" y="3" font-family="Helvetica Neue, Helvetica, Arial, sans-serif">basionym</text></g></g><g class="layer nodes"><g class="node" aria-label="graph-node619" transform="translate(22.663577718443687,86.47233948009175)"><circle class="b-outline" cx="0" cy="0" r="32.5" fill="#8DCC93" stroke="#5db665" stroke-width="2px"/><text class="caption" text-anchor="middle" pointer-events="none" x="0" y="5" font-size="10px" fill="#2A2C34" font-family="Helvetica Neue, Helvetica, Arial, sans-serif"> </text></g><g class="node" aria-label="graph-node460" transform="translate(88.78757793257803,221.94341688925874)"><circle class="b-outline" cx="0" cy="0" r="25" fill="#F79767" stroke="#f36924" stroke-width="2px"/><text class="caption" text-anchor="middle" pointer-events="none" x="0" y="5" font-size="10px" fill="#FFFFFF" font-family="Helvetica Neue, Helvetica, Arial, sans-serif"> </text></g><g class="node" aria-label="graph-node650" transform="translate(175.19668203175453,78.60540874756404)"><circle class="b-outline" cx="0" cy="0" r="25" fill="#4C8EDA" stroke="#2870c2" stroke-width="2px"/><text class="caption" text-anchor="middle" pointer-events="none" x="0" y="5" font-size="10px" fill="#FFFFFF" font-family="Helvetica Neue, Helvetica, Arial, sans-serif"> </text></g><g class="node" aria-label="graph-node454" transform="translate(115.38867003237806,-36.0283647532461)"><circle class="b-outline" cx="0" cy="0" r="25" fill="#F79767" stroke="#f36924" stroke-width="2px"/><text class="caption" text-anchor="middle" pointer-events="none" x="0" y="5" font-size="10px" fill="#FFFFFF" font-family="Helvetica Neue, Helvetica, Arial, sans-serif"> </text></g><g class="node" aria-label="graph-node446" transform="translate(-34.759876663806004,-69.56256084836973)"><circle class="b-outline" cx="0" cy="0" r="25" fill="#F79767" stroke="#f36924" stroke-width="2px"/><text class="caption" text-anchor="middle" pointer-events="none" x="0" y="5" font-size="10px" fill="#FFFFFF" font-family="Helvetica Neue, Helvetica, Arial, sans-serif"> </text></g><g class="node" aria-label="graph-node445" transform="translate(-72.65976409633781,-208.97579092138568)"><circle class="b-outline" cx="0" cy="0" r="25" fill="#F79767" stroke="#f36924" stroke-width="2px"/><text class="caption" text-anchor="middle" pointer-events="none" x="0" y="5" font-size="10px" fill="#FFFFFF" font-family="Helvetica Neue, Helvetica, Arial, sans-serif"> </text></g><g class="node" aria-label="graph-node447" transform="translate(-179.32015249001364,-79.82891657578406)"><circle class="b-outline" cx="0" cy="0" r="25" fill="#F79767" stroke="#f36924" stroke-width="2px"/><text class="caption" text-anchor="middle" pointer-events="none" x="0" y="5" font-size="10px" fill="#FFFFFF" font-family="Helvetica Neue, Helvetica, Arial, sans-serif"> </text></g><g class="node" aria-label="graph-node448" transform="translate(-124.78738129942123,45.188013415326935)"><circle class="b-outline" cx="0" cy="0" r="25" fill="#F79767" stroke="#f36924" stroke-width="2px"/><text class="caption" text-anchor="middle" pointer-events="none" x="0" y="5" font-size="10px" fill="#FFFFFF" font-family="Helvetica Neue, Helvetica, Arial, sans-serif"> </text></g></g></svg>