<svg xmlns="http://www.w3.org/2000/svg" width="554.95361328125" height="447.68603515625" viewBox="-391.45599365234375 -163.2766876220703 554.95361328125 447.68603515625" style="background-color:white"><title>Neo4j Graph Visualization</title><desc>Created using Neo4j (http://www.neo4j.com/)</desc><g class="layer relationships"><g class="relationship" transform="translate(92.17947606224406 50.65264787565121) rotate(483.8823417563987)"><path class="b-outline" fill="#F79767" stroke="none" d="M 25 1 L 56.905476795631145 1 L 56.905476795631145 -1 L 25 -1 Z M 97.14375804563115 1 L 129.0492348412623 1 L 129.0492348412623 4 L 137.0492348412623 0 L 129.0492348412623 -4 L 129.0492348412623 -1 L 97.14375804563115 -1 Z"/><text text-anchor="middle" pointer-events="none" font-size="8px" fill="#000000" x="77.02461742063115" y="3" transform="rotate(180 77.02461742063115 0)" font-family="Helvetica Neue, Helvetica, Arial, sans-serif">basionym</text></g><g class="relationship" transform="translate(-108.90918728115051 -112.58492517511624) rotate(184.44580370689772)"><path class="b-outline" fill="#F79767" stroke="none" d="M 25 1 L 51.052325541414945 1 L 51.052325541414945 -1 L 25 -1 Z M 91.29060679141494 1 L 117.34293233282989 1 L 117.34293233282989 4 L 125.34293233282989 0 L 117.34293233282989 -4 L 117.34293233282989 -1 L 91.29060679141494 -1 Z"/><text text-anchor="middle" pointer-events="none" font-size="8px" fill="#000000" x="71.17146616641494" y="3" transform="rotate(180 71.17146616641494 0)" font-family="Helvetica Neue, Helvetica, Arial, sans-serif">basionym</text></g><g class="relationship" transform="translate(-264.20670276127623 22.51961019998336) rotate(272.1099648551625)"><path class="b-outline" fill="#F79767" stroke="none" d="M 25 1 L 49.309908398622724 1 L 49.309908398622724 -1 L 25 -1 Z M 89.54818964862272 1 L 113.85809804724545 1 L 113.85809804724545 4 L 121.85809804724545 0 L 113.85809804724545 -4 L 113.85809804724545 -1 L 89.54818964862272 -1 Z"/><text text-anchor="middle" pointer-events="none" font-size="8px" fill="#000000" x="69.42904902362272" y="3" font-family="Helvetica Neue, Helvetica, Arial, sans-serif">basionym</text></g><g class="relationship" transform="translate(-362.4559987816122 -21.78905063331547) rotate(315.33535901790293)"><path class="b-outline" fill="#F79767" stroke="none" d="M 25 1 L 48.75162299901635 1 L 48.75162299901635 -1 L 25 -1 Z M 88.98990424901635 1 L 112.7415272480327 1 L 112.7415272480327 4 L 120.7415272480327 0 L 112.7415272480327 -4 L 112.7415272480327 -1 L 88.98990424901635 -1 Z"/><text text-anchor="middle" pointer-events="none" font-size="8px" fill="#000000" x="68.87076362401635" y="3" font-family="Helvetica Neue, Helvetica, Arial, sans-serif">basionym</text></g><g class="relationship" transform="translate(134.49760722740575 255.40938404706964) rotate(207.8955437397526)"><path class="b-outline" fill="#F79767" stroke="none" d="M 25 1 L 50.930949090209594 1 L 50.930949090209594 -1 L 25 -1 Z M 91.1692303402096 1 L 117.10017943041919 1 L 117.10017943041919 4 L 125.10017943041919 0 L 117.10017943041919 -4 L 117.10017943041919 -1 L 91.1692303402096 -1 Z"/><text text-anchor="middle" pointer-events="none" font-size="8px" fill="#000000" x="71.0500897152096" y="3" transform="rotate(180 71.0500897152096 0)" font-family="Helvetica Neue, Helvetica, Arial, sans-serif">basionym</text></g><g class="relationship" transform="translate(-9.76289039458508 17.934523603587454) rotate(503.0548053729592)"><path class="b-outline" fill="#C990C0" stroke="none" d="M 32.5 1.5 L 56.50788064036195 1.5 L 56.50788064036195 -1.5 L 32.5 -1.5 Z M 94.51959939036195 1.5 L 118.5274800307239 1.5 L 118.5274800307239 4.5 L 127.5274800307239 0 L 118.5274800307239 -4.5 L 118.5274800307239 -1.5 L 94.51959939036195 -1.5 Z"/><text text-anchor="middle" pointer-events="none" font-size="8px" fill="#000000" x="75.51374001536195" y="3" transform="rotate(180 75.51374001536195 0)" font-family="Helvetica Neue, Helvetica, Arial, sans-serif">synonym</text></g><g class="relationship" transform="translate(-9.76289039458508 17.934523603587454) rotate(283.6584285385501)"><path class="b-outline" fill="#C990C0" stroke="none" d="M 32.5 1.5 L 58.56459679176794 1.5 L 58.56459679176794 -1.5 L 32.5 -1.5 Z M 96.57631554176794 1.5 L 122.64091233353588 1.5 L 122.64091233353588 4.5 L 131.64091233353588 0 L 122.64091233353588 -4.5 L 122.64091233353588 -1.5 L 96.57631554176794 -1.5 Z"/><text text-anchor="middle" pointer-events="none" font-size="8px" fill="#000000" x="77.57045616676794" y="3" font-family="Helvetica Neue, Helvetica, Arial, sans-serif">synonym</text></g><g class="relationship" transform="translate(-9.76289039458508 17.934523603587454) rotate(325.40091804651667)"><path class="b-outline" fill="#C990C0" stroke="none" d="M 32.5 1.5 L 59.523117782970644 1.5 L 59.523117782970644 -1.5 L 32.5 -1.5 Z M 97.53483653297064 1.5 L 124.55795431594129 1.5 L 124.55795431594129 4.5 L 133.5579543159413 0 L 124.55795431594129 -4.5 L 124.55795431594129 -1.5 L 97.53483653297064 -1.5 Z"/><text text-anchor="middle" pointer-events="none" font-size="8px" fill="#000000" x="78.52897715797064" y="3" font-family="Helvetica Neue, Helvetica, Arial, sans-serif">synonym</text></g><g class="relationship" transform="translate(-9.76289039458508 17.934523603587454) rotate(446.0318838435435)"><path class="b-outline" fill="#C990C0" stroke="none" d="M 32.5 1.5 L 64.06950846628237 1.5 L 64.06950846628237 -1.5 L 32.5 -1.5 Z M 102.08122721628237 1.5 L 133.65073568256474 1.5 L 133.65073568256474 4.5 L 142.65073568256474 0 L 133.65073568256474 -4.5 L 133.65073568256474 -1.5 L 102.08122721628237 -1.5 Z"/><text text-anchor="middle" pointer-events="none" font-size="8px" fill="#000000" x="83.07536784128237" y="3" font-family="Helvetica Neue, Helvetica, Arial, sans-serif">synonym</text></g><g class="relationship" transform="translate(-9.76289039458508 17.934523603587454) rotate(411.59925684528287)"><path class="b-outline" fill="#4C8EDA" stroke="none" d="M 32.5 1 L 59.13450963288423 1 L 59.13450963288423 -1 L 32.5 -1 Z M 108.27122838288423 1 L 134.90573801576846 1 L 134.90573801576846 4 L 142.90573801576846 0 L 134.90573801576846 -4 L 134.90573801576846 -1 L 108.27122838288423 -1 Z"/><text text-anchor="middle" pointer-events="none" font-size="8px" fill="#000000" x="83.70286900788423" y="3" font-family="Helvetica Neue, Helvetica, Arial, sans-serif">accordingTo</text></g><g class="relationship" transform="translate(-9.76289039458508 17.934523603587454) rotate(232.77865963369732)"><path class="b-outline" fill="#FFC454" stroke="none" d="M 32.5 1.5 L 57.74813214741036 1.5 L 57.74813214741036 -1.5 L 32.5 -1.5 Z M 104.65828839741036 1.5 L 129.90642054482072 1.5 L 129.90642054482072 4.5 L 138.90642054482072 0 L 129.90642054482072 -4.5 L 129.90642054482072 -1.5 L 104.65828839741036 -1.5 Z"/><text text-anchor="middle" pointer-events="none" font-size="8px" fill="#000000" x="81.20321027241036" y="3" transform="rotate(180 81.20321027241036 0)" font-family="Helvetica Neue, Helvetica, Arial, sans-serif">taxonName</text></g></g><g class="layer nodes"><g class="node" aria-label="graph-node576" transform="translate(-9.76289039458508,17.934523603587454)"><circle class="b-outline" cx="0" cy="0" r="32.5" fill="#8DCC93" stroke="#5db665" stroke-width="2px"/><text class="caption" text-anchor="middle" pointer-events="none" x="0" y="5" font-size="10px" fill="#2A2C34" font-family="Helvetica Neue, Helvetica, Arial, sans-serif"> </text></g><g class="node" aria-label="graph-node449" transform="translate(1.8387652465434623,185.18335248226705)"><circle class="b-outline" cx="0" cy="0" r="25" fill="#F79767" stroke="#f36924" stroke-width="2px"/><text class="caption" text-anchor="middle" pointer-events="none" x="0" y="5" font-size="10px" fill="#FFFFFF" font-family="Helvetica Neue, Helvetica, Arial, sans-serif"> </text></g><g class="node" aria-label="graph-node647" transform="translate(94.53309280505212,149.51979917437794)"><circle class="b-outline" cx="0" cy="0" r="25" fill="#4C8EDA" stroke="#2870c2" stroke-width="2px"/><text class="caption" text-anchor="middle" pointer-events="none" x="0" y="5" font-size="10px" fill="#FFFFFF" font-family="Helvetica Neue, Helvetica, Arial, sans-serif"> </text></g><g class="node" aria-label="graph-node450" transform="translate(134.49760722740575,255.40938404706964)"><circle class="b-outline" cx="0" cy="0" r="25" fill="#F79767" stroke="#f36924" stroke-width="2px"/><text class="caption" text-anchor="middle" pointer-events="none" x="0" y="5" font-size="10px" fill="#FFFFFF" font-family="Helvetica Neue, Helvetica, Arial, sans-serif"> </text></g><g class="node" aria-label="graph-node451" transform="translate(92.17947606224406,50.65264787565121)"><circle class="b-outline" cx="0" cy="0" r="25" fill="#F79767" stroke="#f36924" stroke-width="2px"/><text class="caption" text-anchor="middle" pointer-events="none" x="0" y="5" font-size="10px" fill="#FFFFFF" font-family="Helvetica Neue, Helvetica, Arial, sans-serif"> </text></g><g class="node" aria-label="graph-node454" transform="translate(120.75337094974141,-72.09952774119874)"><circle class="b-outline" cx="0" cy="0" r="25" fill="#F79767" stroke="#f36924" stroke-width="2px"/><text class="caption" text-anchor="middle" pointer-events="none" x="0" y="5" font-size="10px" fill="#FFFFFF" font-family="Helvetica Neue, Helvetica, Arial, sans-serif"> </text></g><g class="node" aria-label="graph-node455" transform="translate(27.225224425966854,-134.27669404709735)"><circle class="b-outline" cx="0" cy="0" r="25" fill="#F79767" stroke="#f36924" stroke-width="2px"/><text class="caption" text-anchor="middle" pointer-events="none" x="0" y="5" font-size="10px" fill="#FFFFFF" font-family="Helvetica Neue, Helvetica, Arial, sans-serif"> </text></g><g class="node" aria-label="graph-node452" transform="translate(-131.66449992349382,109.61129142828959)"><circle class="b-outline" cx="0" cy="0" r="25" fill="#F79767" stroke="#f36924" stroke-width="2px"/><text class="caption" text-anchor="middle" pointer-events="none" x="0" y="5" font-size="10px" fill="#FFFFFF" font-family="Helvetica Neue, Helvetica, Arial, sans-serif"> </text></g><g class="node" aria-label="graph-node445" transform="translate(-108.90918728115051,-112.58492517511624)"><circle class="b-outline" cx="0" cy="0" r="25" fill="#F79767" stroke="#f36924" stroke-width="2px"/><text class="caption" text-anchor="middle" pointer-events="none" x="0" y="5" font-size="10px" fill="#FFFFFF" font-family="Helvetica Neue, Helvetica, Arial, sans-serif"> </text></g><g class="node" aria-label="graph-node446" transform="translate(-258.7997531388831,-124.2389188803916)"><circle class="b-outline" cx="0" cy="0" r="25" fill="#F79767" stroke="#f36924" stroke-width="2px"/><text class="caption" text-anchor="middle" pointer-events="none" x="0" y="5" font-size="10px" fill="#FFFFFF" font-family="Helvetica Neue, Helvetica, Arial, sans-serif"> </text></g><g class="node" aria-label="graph-node447" transform="translate(-264.20670276127623,22.51961019998336)"><circle class="b-outline" cx="0" cy="0" r="25" fill="#F79767" stroke="#f36924" stroke-width="2px"/><text class="caption" text-anchor="middle" pointer-events="none" x="0" y="5" font-size="10px" fill="#FFFFFF" font-family="Helvetica Neue, Helvetica, Arial, sans-serif"> </text></g><g class="node" aria-label="graph-node448" transform="translate(-362.4559987816122,-21.78905063331547)"><circle class="b-outline" cx="0" cy="0" r="25" fill="#F79767" stroke="#f36924" stroke-width="2px"/><text class="caption" text-anchor="middle" pointer-events="none" x="0" y="5" font-size="10px" fill="#FFFFFF" font-family="Helvetica Neue, Helvetica, Arial, sans-serif"> </text></g></g></svg>