<svg xmlns="http://www.w3.org/2000/svg" width="821.046630859375" height="457.467041015625" viewBox="-432.46929931640625 -212.5534210205078 821.046630859375 457.467041015625" style="background-color:white"><title>Neo4j Graph Visualization</title><desc>Created using Neo4j (http://www.neo4j.com/)</desc><g class="layer relationships"><g class="relationship" transform="translate(355.71487243049455 151.93213046354234) rotate(213.1543928222183)"><path class="b-outline" fill="#F79767" stroke="none" d="M 25 1 L 50.09767861767406 1 L 50.09767861767406 -1 L 25 -1 Z M 90.33595986767406 1 L 115.43363848534813 1 L 115.43363848534813 4 L 123.43363848534813 0 L 115.43363848534813 -4 L 115.43363848534813 -1 L 90.33595986767406 -1 Z"/><text text-anchor="middle" pointer-events="none" font-size="8px" fill="#000000" x="70.21681924267406" y="3" transform="rotate(180 70.21681924267406 0)" font-family="Helvetica Neue, Helvetica, Arial, sans-serif">basionym</text></g><g class="relationship" transform="translate(-198.80088719146943 22.640572279381825) rotate(518.478053342993)"><path class="b-outline" fill="#F79767" stroke="none" d="M 25 1 L 55.4893452966414 1 L 55.4893452966414 -1 L 25 -1 Z M 95.7276265466414 1 L 126.2169718432828 1 L 126.2169718432828 4 L 134.2169718432828 0 L 126.2169718432828 -4 L 126.2169718432828 -1 L 95.7276265466414 -1 Z"/><text text-anchor="middle" pointer-events="none" font-size="8px" fill="#000000" x="75.6084859216414" y="3" transform="rotate(180 75.6084859216414 0)" font-family="Helvetica Neue, Helvetica, Arial, sans-serif">basionym</text></g><g class="relationship" transform="translate(-285.50452788636636 215.9136334423207) rotate(245.5170265910931)"><path class="b-outline" fill="#F79767" stroke="none" d="M 25 1 L 49.97459024576692 1 L 49.97459024576692 -1 L 25 -1 Z M 90.21287149576692 1 L 115.18746174153384 1 L 115.18746174153384 4 L 123.18746174153384 0 L 115.18746174153384 -4 L 115.18746174153384 -1 L 90.21287149576692 -1 Z"/><text text-anchor="middle" pointer-events="none" font-size="8px" fill="#000000" x="70.09373087076692" y="3" transform="rotate(180 70.09373087076692 0)" font-family="Helvetica Neue, Helvetica, Arial, sans-serif">basionym</text></g><g class="relationship" transform="translate(-403.46932676974103 214.31401585299923) rotate(292.9947317096867)"><path class="b-outline" fill="#F79767" stroke="none" d="M 25 1 L 48.26412180649375 1 L 48.26412180649375 -1 L 25 -1 Z M 88.50240305649375 1 L 111.7665248629875 1 L 111.7665248629875 4 L 119.7665248629875 0 L 111.7665248629875 -4 L 111.7665248629875 -1 L 88.50240305649375 -1 Z"/><text text-anchor="middle" pointer-events="none" font-size="8px" fill="#000000" x="68.38326243149375" y="3" font-family="Helvetica Neue, Helvetica, Arial, sans-serif">basionym</text></g><g class="relationship" transform="translate(359.5773007313747 -7.683785788031327) rotate(508.5262764362425)"><path class="b-outline" fill="#F79767" stroke="none" d="M 25 1 L 50.99758264860051 1 L 50.99758264860051 -1 L 25 -1 Z M 91.23586389860051 1 L 117.23344654720103 1 L 117.23344654720103 4 L 125.23344654720103 0 L 117.23344654720103 -4 L 117.23344654720103 -1 L 91.23586389860051 -1 Z"/><text text-anchor="middle" pointer-events="none" font-size="8px" fill="#000000" x="71.11672327360051" y="3" transform="rotate(180 71.11672327360051 0)" font-family="Helvetica Neue, Helvetica, Arial, sans-serif">basionym</text></g><g class="relationship" transform="translate(18.584172532519453 -17.776311478287784) rotate(472.0905647906209)"><path class="b-outline" fill="#C990C0" stroke="none" d="M 32.5 1.5 L 63.991664324069575 1.5 L 63.991664324069575 -1.5 L 32.5 -1.5 Z M 102.00338307406957 1.5 L 133.49504739813915 1.5 L 133.49504739813915 4.5 L 142.49504739813915 0 L 133.49504739813915 -4.5 L 133.49504739813915 -1.5 L 102.00338307406957 -1.5 Z"/><text text-anchor="middle" pointer-events="none" font-size="8px" fill="#000000" x="82.99752369906957" y="3" transform="rotate(180 82.99752369906957 0)" font-family="Helvetica Neue, Helvetica, Arial, sans-serif">synonym</text></g><g class="relationship" transform="translate(18.584172532519453 -17.776311478287784) rotate(508.0618013277867)"><path class="b-outline" fill="#C990C0" stroke="none" d="M 32.5 1.5 L 54.70833543424767 1.5 L 54.70833543424767 -1.5 L 32.5 -1.5 Z M 92.72005418424767 1.5 L 114.92838961849534 1.5 L 114.92838961849534 4.5 L 123.92838961849534 0 L 114.92838961849534 -4.5 L 114.92838961849534 -1.5 L 92.72005418424767 -1.5 Z"/><text text-anchor="middle" pointer-events="none" font-size="8px" fill="#000000" x="73.71419480924767" y="3" transform="rotate(180 73.71419480924767 0)" font-family="Helvetica Neue, Helvetica, Arial, sans-serif">synonym</text></g><g class="relationship" transform="translate(18.584172532519453 -17.776311478287784) rotate(191.44981147154022)"><path class="b-outline" fill="#C990C0" stroke="none" d="M 32.5 1.5 L 55.26264254539858 1.5 L 55.26264254539858 -1.5 L 32.5 -1.5 Z M 93.27436129539858 1.5 L 116.03700384079715 1.5 L 116.03700384079715 4.5 L 125.03700384079715 0 L 116.03700384079715 -4.5 L 116.03700384079715 -1.5 L 93.27436129539858 -1.5 Z"/><text text-anchor="middle" pointer-events="none" font-size="8px" fill="#000000" x="74.26850192039858" y="3" transform="rotate(180 74.26850192039858 0)" font-family="Helvetica Neue, Helvetica, Arial, sans-serif">synonym</text></g><g class="relationship" transform="translate(18.584172532519453 -17.776311478287784) rotate(226.32239067826868)"><path class="b-outline" fill="#C990C0" stroke="none" d="M 32.5 1.5 L 66.6338993770458 1.5 L 66.6338993770458 -1.5 L 32.5 -1.5 Z M 104.6456181270458 1.5 L 138.7795175040916 1.5 L 138.7795175040916 4.5 L 147.7795175040916 0 L 138.7795175040916 -4.5 L 138.7795175040916 -1.5 L 104.6456181270458 -1.5 Z"/><text text-anchor="middle" pointer-events="none" font-size="8px" fill="#000000" x="85.6397587520458" y="3" transform="rotate(180 85.6397587520458 0)" font-family="Helvetica Neue, Helvetica, Arial, sans-serif">synonym</text></g><g class="relationship" transform="translate(18.584172532519453 -17.776311478287784) rotate(294.1404214633877)"><path class="b-outline" fill="#C990C0" stroke="none" d="M 32.5 1.5 L 64.23210643754493 1.5 L 64.23210643754493 -1.5 L 32.5 -1.5 Z M 102.24382518754493 1.5 L 133.97593162508986 1.5 L 133.97593162508986 4.5 L 142.97593162508986 0 L 133.97593162508986 -4.5 L 133.97593162508986 -1.5 L 102.24382518754493 -1.5 Z"/><text text-anchor="middle" pointer-events="none" font-size="8px" fill="#000000" x="83.23796581254493" y="3" font-family="Helvetica Neue, Helvetica, Arial, sans-serif">synonym</text></g><g class="relationship" transform="translate(18.584172532519453 -17.776311478287784) rotate(259.8926046814507)"><path class="b-outline" fill="#C990C0" stroke="none" d="M 32.5 1.5 L 64.43936218907913 1.5 L 64.43936218907913 -1.5 L 32.5 -1.5 Z M 102.45108093907913 1.5 L 134.39044312815827 1.5 L 134.39044312815827 4.5 L 143.39044312815827 0 L 134.39044312815827 -4.5 L 134.39044312815827 -1.5 L 102.45108093907913 -1.5 Z"/><text text-anchor="middle" pointer-events="none" font-size="8px" fill="#000000" x="83.44522156407913" y="3" transform="rotate(180 83.44522156407913 0)" font-family="Helvetica Neue, Helvetica, Arial, sans-serif">synonym</text></g><g class="relationship" transform="translate(18.584172532519453 -17.776311478287784) rotate(328.5341844176473)"><path class="b-outline" fill="#C990C0" stroke="none" d="M 32.5 1.5 L 63.76237325673719 1.5 L 63.76237325673719 -1.5 L 32.5 -1.5 Z M 101.77409200673719 1.5 L 133.03646526347438 1.5 L 133.03646526347438 4.5 L 142.03646526347438 0 L 133.03646526347438 -4.5 L 133.03646526347438 -1.5 L 101.77409200673719 -1.5 Z"/><text text-anchor="middle" pointer-events="none" font-size="8px" fill="#000000" x="82.76823263173719" y="3" font-family="Helvetica Neue, Helvetica, Arial, sans-serif">synonym</text></g><g class="relationship" transform="translate(18.584172532519453 -17.776311478287784) rotate(364.4740560998178)"><path class="b-outline" fill="#C990C0" stroke="none" d="M 32.5 1.5 L 55.61238936208946 1.5 L 55.61238936208946 -1.5 L 32.5 -1.5 Z M 93.62410811208946 1.5 L 116.73649747417892 1.5 L 116.73649747417892 4.5 L 125.73649747417892 0 L 116.73649747417892 -4.5 L 116.73649747417892 -1.5 L 93.62410811208946 -1.5 Z"/><text text-anchor="middle" pointer-events="none" font-size="8px" fill="#000000" x="74.61824873708946" y="3" font-family="Helvetica Neue, Helvetica, Arial, sans-serif">synonym</text></g><g class="relationship" transform="translate(18.584172532519453 -17.776311478287784) rotate(382.58270055994205)"><path class="b-outline" fill="#C990C0" stroke="none" d="M 32.5 1.5 L 95.51330025182527 1.5 L 95.51330025182527 -1.5 L 32.5 -1.5 Z M 133.52501900182529 1.5 L 196.53831925365054 1.5 L 196.53831925365054 4.5 L 205.53831925365054 0 L 196.53831925365054 -4.5 L 196.53831925365054 -1.5 L 133.52501900182529 -1.5 Z"/><text text-anchor="middle" pointer-events="none" font-size="8px" fill="#000000" x="114.51915962682527" y="3" font-family="Helvetica Neue, Helvetica, Arial, sans-serif">synonym</text></g><g class="relationship" transform="translate(18.584172532519453 -17.776311478287784) rotate(437.825909749045)"><path class="b-outline" fill="#C990C0" stroke="none" d="M 32.5 1.5 L 64.41663384835418 1.5 L 64.41663384835418 -1.5 L 32.5 -1.5 Z M 102.42835259835418 1.5 L 134.34498644670836 1.5 L 134.34498644670836 4.5 L 143.34498644670836 0 L 134.34498644670836 -4.5 L 134.34498644670836 -1.5 L 102.42835259835418 -1.5 Z"/><text text-anchor="middle" pointer-events="none" font-size="8px" fill="#000000" x="83.42249322335418" y="3" font-family="Helvetica Neue, Helvetica, Arial, sans-serif">synonym</text></g><g class="relationship" transform="translate(18.584172532519453 -17.776311478287784) rotate(529.467656034428)"><path class="b-outline" fill="#FFC454" stroke="none" d="M 32.5 1.5 L 86.35009891782688 1.5 L 86.35009891782688 -1.5 L 32.5 -1.5 Z M 133.26025516782687 1.5 L 187.11035408565377 1.5 L 187.11035408565377 4.5 L 196.11035408565377 0 L 187.11035408565377 -4.5 L 187.11035408565377 -1.5 L 133.26025516782687 -1.5 Z"/><text text-anchor="middle" pointer-events="none" font-size="8px" fill="#000000" x="109.80517704282688" y="3" transform="rotate(180 109.80517704282688 0)" font-family="Helvetica Neue, Helvetica, Arial, sans-serif">taxonName</text></g><g class="relationship" transform="translate(18.584172532519453 -17.776311478287784) rotate(402.47878842391486)"><path class="b-outline" fill="#4C8EDA" stroke="none" d="M 32.5 1 L 52.74730037733951 1 L 52.74730037733951 -1 L 32.5 -1 Z M 101.88401912733951 1 L 122.13131950467903 1 L 122.13131950467903 4 L 130.13131950467903 0 L 122.13131950467903 -4 L 122.13131950467903 -1 L 101.88401912733951 -1 Z"/><text text-anchor="middle" pointer-events="none" font-size="8px" fill="#000000" x="77.31565975233951" y="3" font-family="Helvetica Neue, Helvetica, Arial, sans-serif">accordingTo</text></g></g><g class="layer nodes"><g class="node" aria-label="graph-node632" transform="translate(18.584172532519453,-17.776311478287784)"><circle class="b-outline" cx="0" cy="0" r="32.5" fill="#8DCC93" stroke="#5db665" stroke-width="2px"/><text class="caption" text-anchor="middle" pointer-events="none" x="0" y="5" font-size="10px" fill="#2A2C34" font-family="Helvetica Neue, Helvetica, Arial, sans-serif"> </text></g><g class="node" aria-label="graph-node460" transform="translate(54.08523080244029,146.78282477205263)"><circle class="b-outline" cx="0" cy="0" r="25" fill="#F79767" stroke="#f36924" stroke-width="2px"/><text class="caption" text-anchor="middle" pointer-events="none" x="0" y="5" font-size="10px" fill="#FFFFFF" font-family="Helvetica Neue, Helvetica, Arial, sans-serif"> </text></g><g class="node" aria-label="graph-node651" transform="translate(132.99777092025732,86.98653878473358)"><circle class="b-outline" cx="0" cy="0" r="25" fill="#4C8EDA" stroke="#2870c2" stroke-width="2px"/><text class="caption" text-anchor="middle" pointer-events="none" x="0" y="5" font-size="10px" fill="#FFFFFF" font-family="Helvetica Neue, Helvetica, Arial, sans-serif"> </text></g><g class="node" aria-label="graph-node449" transform="translate(231.44624422289795,70.75422043007855)"><circle class="b-outline" cx="0" cy="0" r="25" fill="#F79767" stroke="#f36924" stroke-width="2px"/><text class="caption" text-anchor="middle" pointer-events="none" x="0" y="5" font-size="10px" fill="#FFFFFF" font-family="Helvetica Neue, Helvetica, Arial, sans-serif"> </text></g><g class="node" aria-label="graph-node450" transform="translate(359.5773007313747,-7.683785788031327)"><circle class="b-outline" cx="0" cy="0" r="25" fill="#F79767" stroke="#f36924" stroke-width="2px"/><text class="caption" text-anchor="middle" pointer-events="none" x="0" y="5" font-size="10px" fill="#FFFFFF" font-family="Helvetica Neue, Helvetica, Arial, sans-serif"> </text></g><g class="node" aria-label="graph-node451" transform="translate(355.71487243049455,151.93213046354234)"><circle class="b-outline" cx="0" cy="0" r="25" fill="#F79767" stroke="#f36924" stroke-width="2px"/><text class="caption" text-anchor="middle" pointer-events="none" x="0" y="5" font-size="10px" fill="#FFFFFF" font-family="Helvetica Neue, Helvetica, Arial, sans-serif"> </text></g><g class="node" aria-label="graph-node453" transform="translate(168.8613394685916,-6.017707460333436)"><circle class="b-outline" cx="0" cy="0" r="25" fill="#F79767" stroke="#f36924" stroke-width="2px"/><text class="caption" text-anchor="middle" pointer-events="none" x="0" y="5" font-size="10px" fill="#FFFFFF" font-family="Helvetica Neue, Helvetica, Arial, sans-serif"> </text></g><g class="node" aria-label="graph-node454" transform="translate(161.05821809872634,-104.96763597628065)"><circle class="b-outline" cx="0" cy="0" r="25" fill="#F79767" stroke="#f36924" stroke-width="2px"/><text class="caption" text-anchor="middle" pointer-events="none" x="0" y="5" font-size="10px" fill="#FFFFFF" font-family="Helvetica Neue, Helvetica, Arial, sans-serif"> </text></g><g class="node" aria-label="graph-node455" transform="translate(-10.96730572284958,-183.55342530833357)"><circle class="b-outline" cx="0" cy="0" r="25" fill="#F79767" stroke="#f36924" stroke-width="2px"/><text class="caption" text-anchor="middle" pointer-events="none" x="0" y="5" font-size="10px" fill="#FFFFFF" font-family="Helvetica Neue, Helvetica, Arial, sans-serif"> </text></g><g class="node" aria-label="graph-node459" transform="translate(87.2820203083361,-171.06205548694498)"><circle class="b-outline" cx="0" cy="0" r="25" fill="#F79767" stroke="#f36924" stroke-width="2px"/><text class="caption" text-anchor="middle" pointer-events="none" x="0" y="5" font-size="10px" fill="#FFFFFF" font-family="Helvetica Neue, Helvetica, Arial, sans-serif"> </text></g><g class="node" aria-label="graph-node452" transform="translate(-100.73733275086347,-142.73686543774457)"><circle class="b-outline" cx="0" cy="0" r="25" fill="#F79767" stroke="#f36924" stroke-width="2px"/><text class="caption" text-anchor="middle" pointer-events="none" x="0" y="5" font-size="10px" fill="#FFFFFF" font-family="Helvetica Neue, Helvetica, Arial, sans-serif"> </text></g><g class="node" aria-label="graph-node457" transform="translate(-128.46693979423793,-47.56008029599728)"><circle class="b-outline" cx="0" cy="0" r="25" fill="#F79767" stroke="#f36924" stroke-width="2px"/><text class="caption" text-anchor="middle" pointer-events="none" x="0" y="5" font-size="10px" fill="#FFFFFF" font-family="Helvetica Neue, Helvetica, Arial, sans-serif"> </text></g><g class="node" aria-label="graph-node456" transform="translate(-107.79931728819189,61.007435164636654)"><circle class="b-outline" cx="0" cy="0" r="25" fill="#F79767" stroke="#f36924" stroke-width="2px"/><text class="caption" text-anchor="middle" pointer-events="none" x="0" y="5" font-size="10px" fill="#FFFFFF" font-family="Helvetica Neue, Helvetica, Arial, sans-serif"> </text></g><g class="node" aria-label="graph-node458" transform="translate(-44.40597158571198,137.42302050116794)"><circle class="b-outline" cx="0" cy="0" r="25" fill="#F79767" stroke="#f36924" stroke-width="2px"/><text class="caption" text-anchor="middle" pointer-events="none" x="0" y="5" font-size="10px" fill="#FFFFFF" font-family="Helvetica Neue, Helvetica, Arial, sans-serif"> </text></g><g class="node" aria-label="graph-node445" transform="translate(-198.80088719146943,22.640572279381825)"><circle class="b-outline" cx="0" cy="0" r="25" fill="#F79767" stroke="#f36924" stroke-width="2px"/><text class="caption" text-anchor="middle" pointer-events="none" x="0" y="5" font-size="10px" fill="#FFFFFF" font-family="Helvetica Neue, Helvetica, Arial, sans-serif"> </text></g><g class="node" aria-label="graph-node446" transform="translate(-346.9167923496359,81.05052658617566)"><circle class="b-outline" cx="0" cy="0" r="25" fill="#F79767" stroke="#f36924" stroke-width="2px"/><text class="caption" text-anchor="middle" pointer-events="none" x="0" y="5" font-size="10px" fill="#FFFFFF" font-family="Helvetica Neue, Helvetica, Arial, sans-serif"> </text></g><g class="node" aria-label="graph-node447" transform="translate(-285.50452788636636,215.9136334423207)"><circle class="b-outline" cx="0" cy="0" r="25" fill="#F79767" stroke="#f36924" stroke-width="2px"/><text class="caption" text-anchor="middle" pointer-events="none" x="0" y="5" font-size="10px" fill="#FFFFFF" font-family="Helvetica Neue, Helvetica, Arial, sans-serif"> </text></g><g class="node" aria-label="graph-node448" transform="translate(-403.46932676974103,214.31401585299923)"><circle class="b-outline" cx="0" cy="0" r="25" fill="#F79767" stroke="#f36924" stroke-width="2px"/><text class="caption" text-anchor="middle" pointer-events="none" x="0" y="5" font-size="10px" fill="#FFFFFF" font-family="Helvetica Neue, Helvetica, Arial, sans-serif"> </text></g></g></svg>