<svg xmlns="http://www.w3.org/2000/svg" width="762.74951171875" height="612.6293334960938" viewBox="-384.1567687988281 -385.28662109375 762.74951171875 612.6293334960938"><title>Neo4j Graph Visualization</title><desc>Created using Neo4j (http://www.neo4j.com/)</desc><g class="layer relationships"><g class="relationship" transform="translate(-0.9558090609411121 11.639719256612594) rotate(414.84935915570395)"><path class="b-outline" fill="#C990C0" stroke="none" d="M 25 1.5 L 59.925165060852564 1.5 L 59.925165060852564 -1.5 L 25 -1.5 Z M 97.93688381085256 1.5 L 132.86204887170513 1.5 L 132.86204887170513 4.5 L 141.86204887170513 0 L 132.86204887170513 -4.5 L 132.86204887170513 -1.5 L 97.93688381085256 -1.5 Z"/><text text-anchor="middle" pointer-events="none" font-size="8px" fill="#000000" x="78.93102443585256" y="3" font-family="Helvetica Neue, Helvetica, Arial, sans-serif">synonym</text></g><g class="relationship" transform="translate(-0.9558090609411121 11.639719256612594) rotate(331.97474310215125)"><path class="b-outline" fill="#C990C0" stroke="none" d="M 25 1.5 L 50.5767182671065 1.5 L 50.5767182671065 -1.5 L 25 -1.5 Z M 88.5884370171065 1.5 L 114.165155284213 1.5 L 114.165155284213 4.5 L 123.165155284213 0 L 114.165155284213 -4.5 L 114.165155284213 -1.5 L 88.5884370171065 -1.5 Z"/><text text-anchor="middle" pointer-events="none" font-size="8px" fill="#000000" x="69.5825776421065" y="3" font-family="Helvetica Neue, Helvetica, Arial, sans-serif">synonym</text></g><g class="relationship" transform="translate(-0.9558090609411121 11.639719256612594) rotate(285.3488291292152)"><path class="b-outline" fill="#C990C0" stroke="none" d="M 25 1.5 L 57.49388013906517 1.5 L 57.49388013906517 -1.5 L 25 -1.5 Z M 95.50559888906517 1.5 L 127.99947902813034 1.5 L 127.99947902813034 4.5 L 136.99947902813034 0 L 127.99947902813034 -4.5 L 127.99947902813034 -1.5 L 95.50559888906517 -1.5 Z"/><text text-anchor="middle" pointer-events="none" font-size="8px" fill="#000000" x="76.49973951406517" y="3" font-family="Helvetica Neue, Helvetica, Arial, sans-serif">synonym</text></g><g class="relationship" transform="translate(-0.9558090609411121 11.639719256612594) rotate(231.84778959049038)"><path class="b-outline" fill="#C990C0" stroke="none" d="M 25 1.5 L 50.02227329737546 1.5 L 50.02227329737546 -1.5 L 25 -1.5 Z M 88.03399204737546 1.5 L 113.05626534475093 1.5 L 113.05626534475093 4.5 L 122.05626534475093 0 L 113.05626534475093 -4.5 L 113.05626534475093 -1.5 L 88.03399204737546 -1.5 Z"/><text text-anchor="middle" pointer-events="none" font-size="8px" fill="#000000" x="69.02813267237546" y="3" transform="rotate(180 69.02813267237546 0)" font-family="Helvetica Neue, Helvetica, Arial, sans-serif">synonym</text></g><g class="relationship" transform="translate(-0.9558090609411121 11.639719256612594) rotate(467.1367815388495)"><path class="b-outline" fill="#C990C0" stroke="none" d="M 25 1.5 L 50.349556006273545 1.5 L 50.349556006273545 -1.5 L 25 -1.5 Z M 88.36127475627354 1.5 L 113.71083076254709 1.5 L 113.71083076254709 4.5 L 122.71083076254709 0 L 113.71083076254709 -4.5 L 113.71083076254709 -1.5 L 88.36127475627354 -1.5 Z"/><text text-anchor="middle" pointer-events="none" font-size="8px" fill="#000000" x="69.35541538127354" y="3" transform="rotate(180 69.35541538127354 0)" font-family="Helvetica Neue, Helvetica, Arial, sans-serif">synonym</text></g><g class="relationship" transform="translate(-0.9558090609411121 11.639719256612594) rotate(539.628405355566)"><path class="b-outline" fill="#FFC454" stroke="none" d="M 25 1.5 L 50.95404137626923 1.5 L 50.95404137626923 -1.5 L 25 -1.5 Z M 97.86419762626923 1.5 L 123.81823900253846 1.5 L 123.81823900253846 4.5 L 132.81823900253846 0 L 123.81823900253846 -4.5 L 123.81823900253846 -1.5 L 97.86419762626923 -1.5 Z"/><text text-anchor="middle" pointer-events="none" font-size="8px" fill="#000000" x="74.40911950126923" y="3" transform="rotate(180 74.40911950126923 0)" font-family="Helvetica Neue, Helvetica, Arial, sans-serif">taxonName</text></g><g class="relationship" transform="translate(-0.9558090609411121 11.639719256612594) rotate(374.65946562028904)"><path class="b-outline" fill="#4C8EDA" stroke="none" d="M 25 1 L 44.32864682299224 1 L 44.32864682299224 -1 L 25 -1 Z M 93.46536557299224 1 L 112.79401239598448 1 L 112.79401239598448 4 L 120.79401239598448 0 L 112.79401239598448 -4 L 112.79401239598448 -1 L 93.46536557299224 -1 Z"/><text text-anchor="middle" pointer-events="none" font-size="8px" fill="#000000" x="68.89700619799224" y="3" font-family="Helvetica Neue, Helvetica, Arial, sans-serif">accordingTo</text></g><g class="relationship" transform="translate(95.1113693989372 148.07300176649431) rotate(378.3431579211172)"><path class="b-outline" fill="#F79767" stroke="none" d="M 25 1 L 55.74812281551543 1 L 55.74812281551543 -1 L 25 -1 Z M 95.98640406551543 1 L 126.73452688103086 1 L 126.73452688103086 4 L 134.73452688103086 0 L 126.73452688103086 -4 L 126.73452688103086 -1 L 95.98640406551543 -1 Z"/><text text-anchor="middle" pointer-events="none" font-size="8px" fill="#000000" x="75.86726344051543" y="3" font-family="Helvetica Neue, Helvetica, Arial, sans-serif">basionym</text></g><g class="relationship" transform="translate(349.5926683913512 92.99214222899958) rotate(494.31554842199967)"><path class="b-outline" fill="#F79767" stroke="none" d="M 25 1 L 49.50073946068922 1 L 49.50073946068922 -1 L 25 -1 Z M 89.73902071068922 1 L 114.23976017137844 1 L 114.23976017137844 4 L 122.23976017137844 0 L 114.23976017137844 -4 L 114.23976017137844 -1 L 89.73902071068922 -1 Z"/><text text-anchor="middle" pointer-events="none" font-size="8px" fill="#000000" x="69.61988008568922" y="3" transform="rotate(180 69.61988008568922 0)" font-family="Helvetica Neue, Helvetica, Arial, sans-serif">basionym</text></g><g class="relationship" transform="translate(41.92463946318487 -144.5815927970103) rotate(283.6152943668449)"><path class="b-outline" fill="#F79767" stroke="none" d="M 25 1 L 52.968411881768176 1 L 52.968411881768176 -1 L 25 -1 Z M 93.20669313176818 1 L 121.17510501353635 1 L 121.17510501353635 4 L 129.17510501353635 0 L 121.17510501353635 -4 L 121.17510501353635 -1 L 93.20669313176818 -1 Z"/><text text-anchor="middle" pointer-events="none" font-size="8px" fill="#000000" x="73.08755250676818" y="3" font-family="Helvetica Neue, Helvetica, Arial, sans-serif">basionym</text></g><g class="relationship" transform="translate(-52.79669545279087 -356.28664653272176) rotate(385.2758049825069)"><path class="b-outline" fill="#F79767" stroke="none" d="M 25 1 L 48.32350279911101 1 L 48.32350279911101 -1 L 25 -1 Z M 88.56178404911101 1 L 111.88528684822202 1 L 111.88528684822202 4 L 119.88528684822202 0 L 111.88528684822202 -4 L 111.88528684822202 -1 L 88.56178404911101 -1 Z"/><text text-anchor="middle" pointer-events="none" font-size="8px" fill="#000000" x="68.44264342411101" y="3" font-family="Helvetica Neue, Helvetica, Arial, sans-serif">basionym</text></g><g class="relationship" transform="translate(-158.7707289713876 12.66325016562918) rotate(526.1319237888823)"><path class="b-outline" fill="#F79767" stroke="none" d="M 25 1 L 51.9994274529888 1 L 51.9994274529888 -1 L 25 -1 Z M 92.2377087029888 1 L 119.2371361559776 1 L 119.2371361559776 4 L 127.2371361559776 0 L 119.2371361559776 -4 L 119.2371361559776 -1 L 92.2377087029888 -1 Z"/><text text-anchor="middle" pointer-events="none" font-size="8px" fill="#000000" x="72.1185680779888" y="3" transform="rotate(180 72.1185680779888 0)" font-family="Helvetica Neue, Helvetica, Arial, sans-serif">basionym</text></g><g class="relationship" transform="translate(-237.40038481308335 179.26120296545352) rotate(242.0035055743885)"><path class="b-outline" fill="#F79767" stroke="none" d="M 25 1 L 49.55705309803393 1 L 49.55705309803393 -1 L 25 -1 Z M 89.79533434803393 1 L 114.35238744606787 1 L 114.35238744606787 4 L 122.35238744606787 0 L 114.35238744606787 -4 L 114.35238744606787 -1 L 89.79533434803393 -1 Z"/><text text-anchor="middle" pointer-events="none" font-size="8px" fill="#000000" x="69.67619372303393" y="3" transform="rotate(180 69.67619372303393 0)" font-family="Helvetica Neue, Helvetica, Arial, sans-serif">basionym</text></g><g class="relationship" transform="translate(-355.15678875681294 185.40785071108567) rotate(289.62547448760205)"><path class="b-outline" fill="#F79767" stroke="none" d="M 25 1 L 48.210261503430814 1 L 48.210261503430814 -1 L 25 -1 Z M 88.44854275343081 1 L 111.65880425686163 1 L 111.65880425686163 4 L 119.65880425686163 0 L 111.65880425686163 -4 L 111.65880425686163 -1 L 88.44854275343081 -1 Z"/><text text-anchor="middle" pointer-events="none" font-size="8px" fill="#000000" x="68.32940212843081" y="3" font-family="Helvetica Neue, Helvetica, Arial, sans-serif">basionym</text></g></g><g class="layer nodes"><g class="node" aria-label="graph-node161" transform="translate(-0.9558090609411121,11.639719256612594)"><circle class="b-outline" cx="0" cy="0" r="25" fill="#8DCC93" stroke="#5db665" stroke-width="2px"/><text class="caption" text-anchor="middle" pointer-events="none" x="0" y="5" font-size="10px" fill="#2A2C34" font-family="Helvetica Neue, Helvetica, Arial, sans-serif"> </text></g><g class="node" aria-label="graph-node58" transform="translate(95.1113693989372,148.07300176649431)"><circle class="b-outline" cx="0" cy="0" r="25" fill="#F79767" stroke="#f36924" stroke-width="2px"/><text class="caption" text-anchor="middle" pointer-events="none" x="0" y="5" font-size="10px" fill="#FFFFFF" font-family="Helvetica Neue, Helvetica, Arial, sans-serif"> </text></g><g class="node" aria-label="graph-node1" transform="translate(140.09217579038753,48.536331836900324)"><circle class="b-outline" cx="0" cy="0" r="25" fill="#4C8EDA" stroke="#2870c2" stroke-width="2px"/><text class="caption" text-anchor="middle" pointer-events="none" x="0" y="5" font-size="10px" fill="#FFFFFF" font-family="Helvetica Neue, Helvetica, Arial, sans-serif"> </text></g><g class="node" aria-label="graph-node56" transform="translate(246.72957638574718,198.3426584990762)"><circle class="b-outline" cx="0" cy="0" r="25" fill="#F79767" stroke="#f36924" stroke-width="2px"/><text class="caption" text-anchor="middle" pointer-events="none" x="0" y="5" font-size="10px" fill="#FFFFFF" font-family="Helvetica Neue, Helvetica, Arial, sans-serif"> </text></g><g class="node" aria-label="graph-node57" transform="translate(349.5926683913512,92.99214222899958)"><circle class="b-outline" cx="0" cy="0" r="25" fill="#F79767" stroke="#f36924" stroke-width="2px"/><text class="caption" text-anchor="middle" pointer-events="none" x="0" y="5" font-size="10px" fill="#FFFFFF" font-family="Helvetica Neue, Helvetica, Arial, sans-serif"> </text></g><g class="node" aria-label="graph-node102" transform="translate(129.8355825671046,-57.97726944868921)"><circle class="b-outline" cx="0" cy="0" r="25" fill="#F79767" stroke="#f36924" stroke-width="2px"/><text class="caption" text-anchor="middle" pointer-events="none" x="0" y="5" font-size="10px" fill="#FFFFFF" font-family="Helvetica Neue, Helvetica, Arial, sans-serif"> </text></g><g class="node" aria-label="graph-node5" transform="translate(41.92463946318487,-144.5815927970103)"><circle class="b-outline" cx="0" cy="0" r="25" fill="#F79767" stroke="#f36924" stroke-width="2px"/><text class="caption" text-anchor="middle" pointer-events="none" x="0" y="5" font-size="10px" fill="#FFFFFF" font-family="Helvetica Neue, Helvetica, Arial, sans-serif"> </text></g><g class="node" aria-label="graph-node6" transform="translate(78.21769925441662,-294.424099506305)"><circle class="b-outline" cx="0" cy="0" r="25" fill="#F79767" stroke="#f36924" stroke-width="2px"/><text class="caption" text-anchor="middle" pointer-events="none" x="0" y="5" font-size="10px" fill="#FFFFFF" font-family="Helvetica Neue, Helvetica, Arial, sans-serif"> </text></g><g class="node" aria-label="graph-node7" transform="translate(-52.79669545279087,-356.28664653272176)"><circle class="b-outline" cx="0" cy="0" r="25" fill="#F79767" stroke="#f36924" stroke-width="2px"/><text class="caption" text-anchor="middle" pointer-events="none" x="0" y="5" font-size="10px" fill="#FFFFFF" font-family="Helvetica Neue, Helvetica, Arial, sans-serif"> </text></g><g class="node" aria-label="graph-node20" transform="translate(-91.80021525336909,-104.00127278639498)"><circle class="b-outline" cx="0" cy="0" r="25" fill="#F79767" stroke="#f36924" stroke-width="2px"/><text class="caption" text-anchor="middle" pointer-events="none" x="0" y="5" font-size="10px" fill="#FFFFFF" font-family="Helvetica Neue, Helvetica, Arial, sans-serif"> </text></g><g class="node" aria-label="graph-node98" transform="translate(-44.479373217680156,152.79278825497352)"><circle class="b-outline" cx="0" cy="0" r="25" fill="#F79767" stroke="#f36924" stroke-width="2px"/><text class="caption" text-anchor="middle" pointer-events="none" x="0" y="5" font-size="10px" fill="#FFFFFF" font-family="Helvetica Neue, Helvetica, Arial, sans-serif"> </text></g><g class="node" aria-label="graph-node9" transform="translate(-158.7707289713876,12.66325016562918)"><circle class="b-outline" cx="0" cy="0" r="25" fill="#F79767" stroke="#f36924" stroke-width="2px"/><text class="caption" text-anchor="middle" pointer-events="none" x="0" y="5" font-size="10px" fill="#FFFFFF" font-family="Helvetica Neue, Helvetica, Arial, sans-serif"> </text></g><g class="node" aria-label="graph-node10" transform="translate(-306.57018001238043,49.15253485243579)"><circle class="b-outline" cx="0" cy="0" r="25" fill="#F79767" stroke="#f36924" stroke-width="2px"/><text class="caption" text-anchor="middle" pointer-events="none" x="0" y="5" font-size="10px" fill="#FFFFFF" font-family="Helvetica Neue, Helvetica, Arial, sans-serif"> </text></g><g class="node" aria-label="graph-node11" transform="translate(-237.40038481308335,179.26120296545352)"><circle class="b-outline" cx="0" cy="0" r="25" fill="#F79767" stroke="#f36924" stroke-width="2px"/><text class="caption" text-anchor="middle" pointer-events="none" x="0" y="5" font-size="10px" fill="#FFFFFF" font-family="Helvetica Neue, Helvetica, Arial, sans-serif"> </text></g><g class="node" aria-label="graph-node12" transform="translate(-355.15678875681294,185.40785071108567)"><circle class="b-outline" cx="0" cy="0" r="25" fill="#F79767" stroke="#f36924" stroke-width="2px"/><text class="caption" text-anchor="middle" pointer-events="none" x="0" y="5" font-size="10px" fill="#FFFFFF" font-family="Helvetica Neue, Helvetica, Arial, sans-serif"> </text></g></g></svg>