<svg xmlns="http://www.w3.org/2000/svg" width="200.09732055664062" height="208.6195068359375" viewBox="-94.4300308227539 -93.19420623779297 200.09732055664062 208.6195068359375" style="background-color:white"><title>Neo4j Graph Visualization</title><desc>Created using Neo4j (http://www.neo4j.com/)</desc><g class="layer relationships"><g class="relationship" transform="translate(30.02920563671442 86.42529580431707) rotate(289.04431511825135)"><path class="b-outline" fill="#A5ABB6" stroke="none" d="M 23.889326612124187,-7.436401953852087 L 24.406964702329226,-5.50455030127395 A 175.5474957681484 175.5474957681484 0 0 1 41.14300066022932,-9.12440202485152 L 40.81603502461746,-11.09749438790223 A 177.5474957681484 177.5474957681484 0 0 0 23.889326612124187,-7.436401953852087 Z M 94.04334980370058,-11.829019631453576 L 93.77073148518457,-9.84768693541045 A 175.5474957681484 175.5474957681484 0 0 1 110.59992586230817,-6.689136207338554 L 109.90339768188413,-3.7711148753611488 L 118.61349214105593,-5.804401503533603 L 111.76080616301489,-11.55250509396756 L 111.06427798259085,-8.634483761990158 A 177.5474957681484 177.5474957681484 0 0 0 94.04334980370058,-11.829019631453576"/><text text-anchor="middle" pointer-events="none" font-size="8px" fill="#000000" x="67.41586298645156" y="-9.46951524654466" font-family="Helvetica Neue, Helvetica, Arial, sans-serif">originalName</text></g><g class="relationship" transform="translate(30.02920563671442 86.42529580431707) rotate(289.04431511825135)"><path class="b-outline" fill="#F79767" stroke="none" d="M 23.889326612124187,7.436401953852087 L 24.406964702329226,5.50455030127395 A 175.5474957681484 175.5474957681484 0 0 0 47.485227501646904,10.056748040902676 L 47.230518400526364,12.040462555092233 A 177.5474957681484 177.5474957681484 0 0 1 23.889326612124187,7.436401953852087 Z M 87.60537480831869,12.595351089102365 L 87.40527764778949,10.60538598228564 A 175.5474957681484 175.5474957681484 0 0 0 110.59992586230817,6.689136207338554 L 109.90339768188413,3.7711148753611488 L 118.61349214105593,5.804401503533603 L 111.76080616301489,11.55250509396756 L 111.06427798259085,8.634483761990158 A 177.5474957681484 177.5474957681484 0 0 1 87.60537480831869,12.595351089102365"/><text text-anchor="middle" pointer-events="none" font-size="8px" fill="#000000" x="67.41586298645159" y="15.46951524654466" font-family="Helvetica Neue, Helvetica, Arial, sans-serif">basionym</text></g><g class="relationship" transform="translate(-65.43002715493068 -64.19420824003532) rotate(366.2301016802388)"><path class="b-outline" fill="#A5ABB6" stroke="none" d="M 23.889326612124187,7.436401953852087 L 24.406964702329226,5.50455030127395 A 175.56957293123668 175.56957293123668 0 0 0 41.14854078766078,9.125426512452862 L 40.821614286096306,11.098525360097028 A 177.56957293123668 177.56957293123668 0 0 1 23.889326612124187,7.436401953852087 Z M 94.04894263164475,11.82999653727407 L 93.77635957234362,9.84865899011507 A 175.56957293123668 175.56957293123668 0 0 0 110.61111369963838,6.689202101477951 L 109.91457957185723,3.7711821891339388 L 118.62467817514947,5.804451064842899 L 111.77200391260696,11.552568622051306 L 111.07546978482581,8.634548709707293 A 177.56957293123668 177.56957293123668 0 0 1 94.04894263164475,11.82999653727407"/><text text-anchor="middle" pointer-events="none" font-size="8px" fill="#000000" x="67.42145351013531" y="15.470267895576029" font-family="Helvetica Neue, Helvetica, Arial, sans-serif">originalName</text></g><g class="relationship" transform="translate(-65.43002715493068 -64.19420824003532) rotate(366.2301016802388)"><path class="b-outline" fill="#F79767" stroke="none" d="M 23.889326612124187,-7.436401953852087 L 24.406964702329226,-5.50455030127395 A 175.56957293123668 175.56957293123668 0 0 1 47.490788596914214,-10.057661894121736 L 47.23610978272935,-12.041380296921233 A 177.56957293123668 177.56957293123668 0 0 0 23.889326612124187,-7.436401953852087 Z M 87.61096019355199,-12.596227595786644 L 87.41088935953607,-10.60625984193328 A 175.56957293123668 175.56957293123668 0 0 1 110.61111369963838,-6.689202101477951 L 109.91457957185723,-3.7711821891339388 L 118.62467817514947,-5.804451064842899 L 111.77200391260696,-11.552568622051306 L 111.07546978482581,-8.634548709707293 A 177.56957293123668 177.56957293123668 0 0 0 87.61096019355199,-12.596227595786644"/><text text-anchor="middle" pointer-events="none" font-size="8px" fill="#000000" x="67.42145351013528" y="-9.470267895576029" font-family="Helvetica Neue, Helvetica, Arial, sans-serif">basionym</text></g></g><g class="layer nodes"><g class="node" aria-label="graph-node475" transform="translate(30.02920563671442,86.42529580431707)"><circle class="b-outline" cx="0" cy="0" r="25" fill="#F79767" stroke="#f36924" stroke-width="2px"/><text class="caption" text-anchor="middle" pointer-events="none" x="0" y="5" font-size="10px" fill="#FFFFFF" font-family="Helvetica Neue, Helvetica, Arial, sans-serif"> </text></g><g class="node" aria-label="graph-node476" transform="translate(76.66728346511235,-48.68196088342218)"><circle class="b-outline" cx="0" cy="0" r="25" fill="#F79767" stroke="#f36924" stroke-width="2px"/><text class="caption" text-anchor="middle" pointer-events="none" x="0" y="5" font-size="10px" fill="#FFFFFF" font-family="Helvetica Neue, Helvetica, Arial, sans-serif"> </text></g><g class="node" aria-label="graph-node477" transform="translate(-65.43002715493068,-64.19420824003532)"><circle class="b-outline" cx="0" cy="0" r="25" fill="#F79767" stroke="#f36924" stroke-width="2px"/><text class="caption" text-anchor="middle" pointer-events="none" x="0" y="5" font-size="10px" fill="#FFFFFF" font-family="Helvetica Neue, Helvetica, Arial, sans-serif"> </text></g></g></svg>