<svg xmlns="http://www.w3.org/2000/svg" width="626.2553100585938" height="481.2145080566406" viewBox="-381.5726318359375 -180.8297119140625 626.2553100585938 481.2145080566406" style="background-color:white"><title>Neo4j Graph Visualization</title><desc>Created using Neo4j (http://www.neo4j.com/)</desc><g class="layer relationships"><g class="relationship" transform="translate(19.24025957059104 -4.104036134581124) rotate(432.00790050928873)"><path class="b-outline" fill="#C990C0" stroke="none" d="M 25 1.5 L 58.748779245067354 1.5 L 58.748779245067354 -1.5 L 25 -1.5 Z M 96.76049799506735 1.5 L 130.5092772401347 1.5 L 130.5092772401347 4.5 L 139.5092772401347 0 L 130.5092772401347 -4.5 L 130.5092772401347 -1.5 L 96.76049799506735 -1.5 Z"/><text text-anchor="middle" pointer-events="none" font-size="8px" fill="#000000" x="77.75463862006735" y="3" font-family="Helvetica Neue, Helvetica, Arial, sans-serif">synonym</text></g><g class="relationship" transform="translate(19.24025957059104 -4.104036134581124) rotate(313.06341167272853)"><path class="b-outline" fill="#C990C0" stroke="none" d="M 25 1.5 L 50.492408281715925 1.5 L 50.492408281715925 -1.5 L 25 -1.5 Z M 88.50412703171592 1.5 L 113.99653531343185 1.5 L 113.99653531343185 4.5 L 122.99653531343185 0 L 113.99653531343185 -4.5 L 113.99653531343185 -1.5 L 88.50412703171592 -1.5 Z"/><text text-anchor="middle" pointer-events="none" font-size="8px" fill="#000000" x="69.49826765671592" y="3" font-family="Helvetica Neue, Helvetica, Arial, sans-serif">synonym</text></g><g class="relationship" transform="translate(19.24025957059104 -4.104036134581124) rotate(268.73488521725386)"><path class="b-outline" fill="#C990C0" stroke="none" d="M 25 1.5 L 50.37498662299866 1.5 L 50.37498662299866 -1.5 L 25 -1.5 Z M 88.38670537299866 1.5 L 113.76169199599732 1.5 L 113.76169199599732 4.5 L 122.76169199599732 0 L 113.76169199599732 -4.5 L 113.76169199599732 -1.5 L 88.38670537299866 -1.5 Z"/><text text-anchor="middle" pointer-events="none" font-size="8px" fill="#000000" x="69.38084599799866" y="3" transform="rotate(180 69.38084599799866 0)" font-family="Helvetica Neue, Helvetica, Arial, sans-serif">synonym</text></g><g class="relationship" transform="translate(19.24025957059104 -4.104036134581124) rotate(496.2386520032079)"><path class="b-outline" fill="#C990C0" stroke="none" d="M 25 1.5 L 49.11660717498623 1.5 L 49.11660717498623 -1.5 L 25 -1.5 Z M 87.12832592498623 1.5 L 111.24493309997246 1.5 L 111.24493309997246 4.5 L 120.24493309997246 0 L 111.24493309997246 -4.5 L 111.24493309997246 -1.5 L 87.12832592498623 -1.5 Z"/><text text-anchor="middle" pointer-events="none" font-size="8px" fill="#000000" x="68.12246654998623" y="3" transform="rotate(180 68.12246654998623 0)" font-family="Helvetica Neue, Helvetica, Arial, sans-serif">synonym</text></g><g class="relationship" transform="translate(19.24025957059104 -4.104036134581124) rotate(216.279097267373)"><path class="b-outline" fill="#FFC454" stroke="none" d="M 25 1.5 L 51.18679273553707 1.5 L 51.18679273553707 -1.5 L 25 -1.5 Z M 98.09694898553707 1.5 L 124.28374172107414 1.5 L 124.28374172107414 4.5 L 133.28374172107414 0 L 124.28374172107414 -4.5 L 124.28374172107414 -1.5 L 98.09694898553707 -1.5 Z"/><text text-anchor="middle" pointer-events="none" font-size="8px" fill="#000000" x="74.64187086053707" y="3" transform="rotate(180 74.64187086053707 0)" font-family="Helvetica Neue, Helvetica, Arial, sans-serif">taxonName</text></g><g class="relationship" transform="translate(19.24025957059104 -4.104036134581124) rotate(358.7275154225089)"><path class="b-outline" fill="#4C8EDA" stroke="none" d="M 25 1 L 44.53307786384468 1 L 44.53307786384468 -1 L 25 -1 Z M 93.66979661384468 1 L 113.20287447768936 1 L 113.20287447768936 4 L 121.20287447768936 0 L 113.20287447768936 -4 L 113.20287447768936 -1 L 93.66979661384468 -1 Z"/><text text-anchor="middle" pointer-events="none" font-size="8px" fill="#000000" x="69.10143723884468" y="3" font-family="Helvetica Neue, Helvetica, Arial, sans-serif">accordingTo</text></g><g class="relationship" transform="translate(151.9869889769472 271.38479491356276) rotate(235.4578214693421)"><path class="b-outline" fill="#F79767" stroke="none" d="M 25 1 L 48.12979813732338 1 L 48.12979813732338 -1 L 25 -1 Z M 88.36807938732338 1 L 111.49787752464675 1 L 111.49787752464675 4 L 119.49787752464675 0 L 111.49787752464675 -4 L 111.49787752464675 -1 L 88.36807938732338 -1 Z"/><text text-anchor="middle" pointer-events="none" font-size="8px" fill="#000000" x="68.24893876232338" y="3" transform="rotate(180 68.24893876232338 0)" font-family="Helvetica Neue, Helvetica, Arial, sans-serif">basionym</text></g><g class="relationship" transform="translate(215.6826392734479 141.83279564998134) rotate(535.8651382569606)"><path class="b-outline" fill="#F79767" stroke="none" d="M 25 1 L 48.884777456243754 1 L 48.884777456243754 -1 L 25 -1 Z M 89.12305870624375 1 L 113.00783616248751 1 L 113.00783616248751 4 L 121.00783616248751 0 L 113.00783616248751 -4 L 113.00783616248751 -1 L 89.12305870624375 -1 Z"/><text text-anchor="middle" pointer-events="none" font-size="8px" fill="#000000" x="69.00391808124375" y="3" transform="rotate(180 69.00391808124375 0)" font-family="Helvetica Neue, Helvetica, Arial, sans-serif">basionym</text></g><g class="relationship" transform="translate(-108.3592619990679 -97.76355240718338) rotate(538.4946910051347)"><path class="b-outline" fill="#F79767" stroke="none" d="M 25 1 L 51.89127351009371 1 L 51.89127351009371 -1 L 25 -1 Z M 92.12955476009371 1 L 119.02082827018742 1 L 119.02082827018742 4 L 127.02082827018742 0 L 119.02082827018742 -4 L 119.02082827018742 -1 L 92.12955476009371 -1 Z"/><text text-anchor="middle" pointer-events="none" font-size="8px" fill="#000000" x="72.01041413509371" y="3" transform="rotate(180 72.01041413509371 0)" font-family="Helvetica Neue, Helvetica, Arial, sans-serif">basionym</text></g><g class="relationship" transform="translate(-246.62614393476085 52.884772626934506) rotate(264.66253436587823)"><path class="b-outline" fill="#F79767" stroke="none" d="M 25 1 L 49.52758655010429 1 L 49.52758655010429 -1 L 25 -1 Z M 89.76586780010429 1 L 114.29345435020858 1 L 114.29345435020858 4 L 122.29345435020858 0 L 114.29345435020858 -4 L 114.29345435020858 -1 L 89.76586780010429 -1 Z"/><text text-anchor="middle" pointer-events="none" font-size="8px" fill="#000000" x="69.64672717510429" y="3" transform="rotate(180 69.64672717510429 0)" font-family="Helvetica Neue, Helvetica, Arial, sans-serif">basionym</text></g><g class="relationship" transform="translate(-352.5726477288364 18.9288783349574) rotate(309.30061897730997)"><path class="b-outline" fill="#F79767" stroke="none" d="M 25 1 L 48.6994485201206 1 L 48.6994485201206 -1 L 25 -1 Z M 88.9377297701206 1 L 112.6371782902412 1 L 112.6371782902412 4 L 120.6371782902412 0 L 112.6371782902412 -4 L 112.6371782902412 -1 L 88.9377297701206 -1 Z"/><text text-anchor="middle" pointer-events="none" font-size="8px" fill="#000000" x="68.8185891451206" y="3" font-family="Helvetica Neue, Helvetica, Arial, sans-serif">basionym</text></g></g><g class="layer nodes"><g class="node" aria-label="graph-node144" transform="translate(19.24025957059104,-4.104036134581124)"><circle class="b-outline" cx="0" cy="0" r="25" fill="#8DCC93" stroke="#5db665" stroke-width="2px"/><text class="caption" text-anchor="middle" pointer-events="none" x="0" y="5" font-size="10px" fill="#2A2C34" font-family="Helvetica Neue, Helvetica, Arial, sans-serif"> </text></g><g class="node" aria-label="graph-node13" transform="translate(70.05484756137095,152.36059228155256)"><circle class="b-outline" cx="0" cy="0" r="25" fill="#F79767" stroke="#f36924" stroke-width="2px"/><text class="caption" text-anchor="middle" pointer-events="none" x="0" y="5" font-size="10px" fill="#FFFFFF" font-family="Helvetica Neue, Helvetica, Arial, sans-serif"> </text></g><g class="node" aria-label="graph-node0" transform="translate(165.40707885279838,-7.350795513028502)"><circle class="b-outline" cx="0" cy="0" r="25" fill="#4C8EDA" stroke="#2870c2" stroke-width="2px"/><text class="caption" text-anchor="middle" pointer-events="none" x="0" y="5" font-size="10px" fill="#FFFFFF" font-family="Helvetica Neue, Helvetica, Arial, sans-serif"> </text></g><g class="node" aria-label="graph-node14" transform="translate(151.9869889769472,271.38479491356276)"><circle class="b-outline" cx="0" cy="0" r="25" fill="#F79767" stroke="#f36924" stroke-width="2px"/><text class="caption" text-anchor="middle" pointer-events="none" x="0" y="5" font-size="10px" fill="#FFFFFF" font-family="Helvetica Neue, Helvetica, Arial, sans-serif"> </text></g><g class="node" aria-label="graph-node15" transform="translate(215.6826392734479,141.83279564998134)"><circle class="b-outline" cx="0" cy="0" r="25" fill="#F79767" stroke="#f36924" stroke-width="2px"/><text class="caption" text-anchor="middle" pointer-events="none" x="0" y="5" font-size="10px" fill="#FFFFFF" font-family="Helvetica Neue, Helvetica, Arial, sans-serif"> </text></g><g class="node" aria-label="graph-node18" transform="translate(120.29338349513458,-112.23007652204157)"><circle class="b-outline" cx="0" cy="0" r="25" fill="#F79767" stroke="#f36924" stroke-width="2px"/><text class="caption" text-anchor="middle" pointer-events="none" x="0" y="5" font-size="10px" fill="#FFFFFF" font-family="Helvetica Neue, Helvetica, Arial, sans-serif"> </text></g><g class="node" aria-label="graph-node19" transform="translate(15.977884699022416,-151.8297093661401)"><circle class="b-outline" cx="0" cy="0" r="25" fill="#F79767" stroke="#f36924" stroke-width="2px"/><text class="caption" text-anchor="middle" pointer-events="none" x="0" y="5" font-size="10px" fill="#FFFFFF" font-family="Helvetica Neue, Helvetica, Arial, sans-serif"> </text></g><g class="node" aria-label="graph-node16" transform="translate(-85.65955082185035,96.35550980728209)"><circle class="b-outline" cx="0" cy="0" r="25" fill="#F79767" stroke="#f36924" stroke-width="2px"/><text class="caption" text-anchor="middle" pointer-events="none" x="0" y="5" font-size="10px" fill="#FFFFFF" font-family="Helvetica Neue, Helvetica, Arial, sans-serif"> </text></g><g class="node" aria-label="graph-node9" transform="translate(-108.3592619990679,-97.76355240718338)"><circle class="b-outline" cx="0" cy="0" r="25" fill="#F79767" stroke="#f36924" stroke-width="2px"/><text class="caption" text-anchor="middle" pointer-events="none" x="0" y="5" font-size="10px" fill="#FFFFFF" font-family="Helvetica Neue, Helvetica, Arial, sans-serif"> </text></g><g class="node" aria-label="graph-node10" transform="translate(-260.3276271430184,-93.77002972304248)"><circle class="b-outline" cx="0" cy="0" r="25" fill="#F79767" stroke="#f36924" stroke-width="2px"/><text class="caption" text-anchor="middle" pointer-events="none" x="0" y="5" font-size="10px" fill="#FFFFFF" font-family="Helvetica Neue, Helvetica, Arial, sans-serif"> </text></g><g class="node" aria-label="graph-node11" transform="translate(-246.62614393476085,52.884772626934506)"><circle class="b-outline" cx="0" cy="0" r="25" fill="#F79767" stroke="#f36924" stroke-width="2px"/><text class="caption" text-anchor="middle" pointer-events="none" x="0" y="5" font-size="10px" fill="#FFFFFF" font-family="Helvetica Neue, Helvetica, Arial, sans-serif"> </text></g><g class="node" aria-label="graph-node12" transform="translate(-352.5726477288364,18.9288783349574)"><circle class="b-outline" cx="0" cy="0" r="25" fill="#F79767" stroke="#f36924" stroke-width="2px"/><text class="caption" text-anchor="middle" pointer-events="none" x="0" y="5" font-size="10px" fill="#FFFFFF" font-family="Helvetica Neue, Helvetica, Arial, sans-serif"> </text></g></g></svg>