<svg xmlns="http://www.w3.org/2000/svg" width="203.0840606689453" height="184.07640075683594" viewBox="-101.81773376464844 -71.35989379882812 203.0840606689453 184.07640075683594" style="background-color:white"><title>Neo4j Graph Visualization</title><desc>Created using Neo4j (http://www.neo4j.com/)</desc><g class="layer relationships"><g class="relationship" transform="translate(0.5514082125815285 83.71651438847783) rotate(239.6036879055253)"><path class="b-outline" fill="#A5ABB6" stroke="none" d="M 25 1.5 L 41.43586691579068 1.5 L 41.43586691579068 -1.5 L 25 -1.5 Z M 94.56867941579068 1.5 L 111.00454633158137 1.5 L 111.00454633158137 4.5 L 120.00454633158137 0 L 111.00454633158137 -4.5 L 111.00454633158137 -1.5 L 94.56867941579068 -1.5 Z"/><text text-anchor="middle" pointer-events="none" font-size="8px" fill="#000000" x="68.00227316579068" y="3" transform="rotate(180 68.00227316579068 0)" font-family="Helvetica Neue, Helvetica, Arial, sans-serif">originalName</text></g><g class="relationship" transform="translate(0.5514082125815285 83.71651438847783) rotate(299.63213070840663)"><path class="b-outline" fill="#F79767" stroke="none" d="M 25 1 L 39.50924331258783 1 L 39.50924331258783 -1 L 25 -1 Z M 97.53658706258783 1 L 112.04583037517565 1 L 112.04583037517565 4 L 120.04583037517565 0 L 112.04583037517565 -4 L 112.04583037517565 -1 L 97.53658706258783 -1 Z"/><text text-anchor="middle" pointer-events="none" font-size="8px" fill="#000000" x="68.52291518758783" y="3" font-family="Helvetica Neue, Helvetica, Arial, sans-serif">replacedName</text></g><g class="relationship" transform="translate(72.26632965310002 -42.35990272433707) rotate(539.6037922835283)"><path class="b-outline" fill="#A5ABB6" stroke="none" d="M 23.759917089572927,-7.919364866996621 L 24.536374224880486,-5.021587388129416 A 178.4160212803707 178.4160212803707 0 0 1 41.79475087635268,-8.74164860438313 L 41.30848701843614,-11.701977549024946 A 181.4160212803707 181.4160212803707 0 0 0 23.759917089572927,-7.919364866996621 Z M 94.68367901619297,-12.510469833560506 L 94.2872999032012,-9.536771194023544 A 178.4160212803707 178.4160212803707 0 0 1 111.65043100639281,-6.341133794358805 L 110.96209720830178,-3.4211686263464225 L 120.75449340947547,-5.736114984091911 L 113.02709860257487,-12.181064130383568 L 112.33876480448384,-9.261098962371188 A 181.4160212803707 181.4160212803707 0 0 0 94.68367901619297,-12.510469833560506"/><text text-anchor="middle" pointer-events="none" font-size="8px" fill="#000000" x="67.98890157756959" y="-9.580329298160592" transform="rotate(180 67.98890157756959 -12.580329298160592)" font-family="Helvetica Neue, Helvetica, Arial, sans-serif">originalName</text></g><g class="relationship" transform="translate(72.26632965310002 -42.35990272433707) rotate(539.6037922835283)"><path class="b-outline" fill="#F79767" stroke="none" d="M 23.889326612124187,7.436401953852087 L 24.406964702329226,5.50455030127395 A 179.80813140827215 179.80813140827215 0 0 0 39.81305801393848,8.915815238226713 L 39.46678139877851,10.885610279796623 A 181.80813140827215 181.80813140827215 0 0 1 23.889326612124187,7.436401953852087 Z M 97.55964143809915,11.672734274817714 L 97.26686126752202,9.69428039066554 A 179.80813140827215 179.80813140827215 0 0 0 112.75972320390859,6.7016780755963765 L 112.06206304858652,3.783927176757342 L 120.7729456525867,5.813834627683882 L 113.92249012944536,11.5645962403281 L 113.2248299741233,8.646845341489065 A 181.80813140827215 181.80813140827215 0 0 1 97.55964143809915,11.672734274817714"/><text text-anchor="middle" pointer-events="none" font-size="8px" fill="#000000" x="68.49511486881195" y="15.61476912268185" transform="rotate(180 68.49511486881195 12.61476912268185)" font-family="Helvetica Neue, Helvetica, Arial, sans-serif">replacedName</text></g></g><g class="layer nodes"><g class="node" aria-label="graph-node562" transform="translate(0.5514082125815285,83.71651438847783)"><circle class="b-outline" cx="0" cy="0" r="25" fill="#F79767" stroke="#f36924" stroke-width="2px"/><text class="caption" text-anchor="middle" pointer-events="none" x="0" y="5" font-size="10px" fill="#FFFFFF" font-family="Helvetica Neue, Helvetica, Arial, sans-serif"> </text></g><g class="node" aria-label="graph-node563" transform="translate(72.26632965310002,-42.35990272433707)"><circle class="b-outline" cx="0" cy="0" r="25" fill="#F79767" stroke="#f36924" stroke-width="2px"/><text class="caption" text-anchor="middle" pointer-events="none" x="0" y="5" font-size="10px" fill="#FFFFFF" font-family="Helvetica Neue, Helvetica, Arial, sans-serif"> </text></g><g class="node" aria-label="graph-node564" transform="translate(-72.81773786568152,-41.35661166414079)"><circle class="b-outline" cx="0" cy="0" r="25" fill="#F79767" stroke="#f36924" stroke-width="2px"/><text class="caption" text-anchor="middle" pointer-events="none" x="0" y="5" font-size="10px" fill="#FFFFFF" font-family="Helvetica Neue, Helvetica, Arial, sans-serif"> </text></g></g></svg>