<svg xmlns="http://www.w3.org/2000/svg" width="293.5400695800781" height="275.1455383300781" viewBox="-145.701416015625 -140.54800415039062 293.5400695800781 275.1455383300781"><title>Neo4j Graph Visualization</title><desc>Created using Neo4j (http://www.neo4j.com/)</desc><g class="layer relationships"><g class="relationship" transform="translate(61.745523210456376 105.5975504020553) rotate(293.34494287622516)"><path class="b-outline" fill="#F79767" stroke="none" d="M 25 1 L 47.91978816879475 1 L 47.91978816879475 -1 L 25 -1 Z M 88.15806941879475 1 L 111.0778575875895 1 L 111.0778575875895 4 L 119.0778575875895 0 L 111.0778575875895 -4 L 111.0778575875895 -1 L 88.15806941879475 -1 Z"/><text text-anchor="middle" pointer-events="none" font-size="8px" fill="#000000" x="68.03892879379475" y="3" font-family="Helvetica Neue, Helvetica, Arial, sans-serif">basionym</text></g><g class="relationship" transform="translate(118.83865232543135 -26.68549331440338) rotate(215.58971317972515)"><path class="b-outline" fill="#F79767" stroke="none" d="M 25 1 L 39.89514691708429 1 L 39.89514691708429 -1 L 25 -1 Z M 97.92249066708429 1 L 112.81763758416858 1 L 112.81763758416858 4 L 120.81763758416858 0 L 112.81763758416858 -4 L 112.81763758416858 -1 L 97.92249066708429 -1 Z"/><text text-anchor="middle" pointer-events="none" font-size="8px" fill="#000000" x="68.90881879208429" y="3" transform="rotate(180 68.90881879208429 0)" font-family="Helvetica Neue, Helvetica, Arial, sans-serif">replacedName</text></g><g class="relationship" transform="translate(-116.70143479826666 -28.901194061890866) rotate(324.75413069284366)"><path class="b-outline" fill="#F79767" stroke="none" d="M 25 1 L 47.48783161458631 1 L 47.48783161458631 -1 L 25 -1 Z M 87.72611286458631 1 L 110.21394447917262 1 L 110.21394447917262 4 L 118.21394447917262 0 L 110.21394447917262 -4 L 110.21394447917262 -1 L 87.72611286458631 -1 Z"/><text text-anchor="middle" pointer-events="none" font-size="8px" fill="#000000" x="67.60697223958631" y="3" font-family="Helvetica Neue, Helvetica, Arial, sans-serif">basionym</text></g></g><g class="layer nodes"><g class="node" aria-label="graph-node461" transform="translate(61.745523210456376,105.5975504020553)"><circle class="b-outline" cx="0" cy="0" r="25" fill="#F79767" stroke="#f36924" stroke-width="2px"/><text class="caption" text-anchor="middle" pointer-events="none" x="0" y="5" font-size="10px" fill="#FFFFFF" font-family="Helvetica Neue, Helvetica, Arial, sans-serif"> </text></g><g class="node" aria-label="graph-node462" transform="translate(118.83865232543135,-26.68549331440338)"><circle class="b-outline" cx="0" cy="0" r="25" fill="#F79767" stroke="#f36924" stroke-width="2px"/><text class="caption" text-anchor="middle" pointer-events="none" x="0" y="5" font-size="10px" fill="#FFFFFF" font-family="Helvetica Neue, Helvetica, Arial, sans-serif"> </text></g><g class="node" aria-label="graph-node463" transform="translate(0.25898220066021976,-111.54800131250812)"><circle class="b-outline" cx="0" cy="0" r="25" fill="#F79767" stroke="#f36924" stroke-width="2px"/><text class="caption" text-anchor="middle" pointer-events="none" x="0" y="5" font-size="10px" fill="#FFFFFF" font-family="Helvetica Neue, Helvetica, Arial, sans-serif"> </text></g><g class="node" aria-label="graph-node464" transform="translate(-116.70143479826666,-28.901194061890866)"><circle class="b-outline" cx="0" cy="0" r="25" fill="#F79767" stroke="#f36924" stroke-width="2px"/><text class="caption" text-anchor="middle" pointer-events="none" x="0" y="5" font-size="10px" fill="#FFFFFF" font-family="Helvetica Neue, Helvetica, Arial, sans-serif"> </text></g></g></svg>