<svg xmlns="http://www.w3.org/2000/svg" width="200.09732055664062" height="208.6195068359375" viewBox="-94.4300308227539 -93.19420623779297 200.09732055664062 208.6195068359375"><title>Neo4j Graph Visualization</title><desc>Created using Neo4j (http://www.neo4j.com/)</desc><g class="layer relationships"><g class="relationship" transform="translate(30.02920563671442 86.42529580431707) rotate(289.04431511825135)"><path class="b-outline" fill="#F79767" stroke="none" d="M 25 1 L 47.34602766210048 1 L 47.34602766210048 -1 L 25 -1 Z M 87.58430891210048 1 L 109.93033657420096 1 L 109.93033657420096 4 L 117.93033657420096 0 L 109.93033657420096 -4 L 109.93033657420096 -1 L 87.58430891210048 -1 Z"/><text text-anchor="middle" pointer-events="none" font-size="8px" fill="#000000" x="67.46516828710048" y="3" font-family="Helvetica Neue, Helvetica, Arial, sans-serif">basionym</text></g><g class="relationship" transform="translate(-65.43002715493068 -64.19420824003532) rotate(366.2301016802388)"><path class="b-outline" fill="#F79767" stroke="none" d="M 25 1 L 47.35161476400815 1 L 47.35161476400815 -1 L 25 -1 Z M 87.58989601400815 1 L 109.9415107780163 1 L 109.9415107780163 4 L 117.9415107780163 0 L 109.9415107780163 -4 L 109.9415107780163 -1 L 87.58989601400815 -1 Z"/><text text-anchor="middle" pointer-events="none" font-size="8px" fill="#000000" x="67.47075538900815" y="3" font-family="Helvetica Neue, Helvetica, Arial, sans-serif">basionym</text></g></g><g class="layer nodes"><g class="node" aria-label="graph-node475" transform="translate(30.02920563671442,86.42529580431707)"><circle class="b-outline" cx="0" cy="0" r="25" fill="#F79767" stroke="#f36924" stroke-width="2px"/><text class="caption" text-anchor="middle" pointer-events="none" x="0" y="5" font-size="10px" fill="#FFFFFF" font-family="Helvetica Neue, Helvetica, Arial, sans-serif"> </text></g><g class="node" aria-label="graph-node476" transform="translate(76.66728346511235,-48.68196088342218)"><circle class="b-outline" cx="0" cy="0" r="25" fill="#F79767" stroke="#f36924" stroke-width="2px"/><text class="caption" text-anchor="middle" pointer-events="none" x="0" y="5" font-size="10px" fill="#FFFFFF" font-family="Helvetica Neue, Helvetica, Arial, sans-serif"> </text></g><g class="node" aria-label="graph-node477" transform="translate(-65.43002715493068,-64.19420824003532)"><circle class="b-outline" cx="0" cy="0" r="25" fill="#F79767" stroke="#f36924" stroke-width="2px"/><text class="caption" text-anchor="middle" pointer-events="none" x="0" y="5" font-size="10px" fill="#FFFFFF" font-family="Helvetica Neue, Helvetica, Arial, sans-serif"> </text></g></g></svg>