<svg xmlns="http://www.w3.org/2000/svg" width="322.2942199707031" height="206.1032257080078" viewBox="-159.19003295898438 -108.68107604980469 322.2942199707031 206.1032257080078"><title>Neo4j Graph Visualization</title><desc>Created using Neo4j (http://www.neo4j.com/)</desc><g class="layer relationships"><g class="relationship" transform="translate(18.945486987536235 68.42214032711752) rotate(263.8762395699405)"><path class="b-outline" fill="#A5ABB6" stroke="none" d="M 25 1 L 43.910180558755854 1 L 43.910180558755854 -1 L 25 -1 Z M 97.04299305875585 1 L 115.95317361751171 1 L 115.95317361751171 4 L 123.95317361751171 0 L 115.95317361751171 -4 L 115.95317361751171 -1 L 97.04299305875585 -1 Z"/><text text-anchor="middle" pointer-events="none" font-size="8px" fill="#000000" x="70.47658680875585" y="3" transform="rotate(180 70.47658680875585 0)" font-family="Helvetica Neue, Helvetica, Arial, sans-serif">originalName</text></g><g class="relationship" transform="translate(18.945486987536235 68.42214032711752) rotate(322.9795357252965)"><path class="b-outline" fill="#F79767" stroke="none" d="M 25 1 L 47.997434991938064 1 L 47.997434991938064 -1 L 25 -1 Z M 88.23571624193806 1 L 111.23315123387613 1 L 111.23315123387613 4 L 119.23315123387613 0 L 111.23315123387613 -4 L 111.23315123387613 -1 L 88.23571624193806 -1 Z"/><text text-anchor="middle" pointer-events="none" font-size="8px" fill="#000000" x="68.11657561693806" y="3" font-family="Helvetica Neue, Helvetica, Arial, sans-serif">basionym</text></g><g class="relationship" transform="translate(134.10419307634933 -18.42067357711146) rotate(205.05437730178545)"><path class="b-outline" fill="#A5ABB6" stroke="none" d="M 23.889326612124187,-7.436401953852087 L 24.406964702329226,-5.50455030127395 A 178.96413686941133 178.96413686941133 0 0 1 42.00079234084173,-9.282200282551116 L 41.67977272343552,-11.256268773065159 A 180.96413686941133 180.96413686941133 0 0 0 23.889326612124187,-7.436401953852087 Z M 94.90907518194817,-11.979517408715253 L 94.64180914917691,-9.997455636790193 A 178.96413686941133 178.96413686941133 0 0 1 112.33177976649321,-6.699221273799033 L 111.63434135039785,-3.781417364048692 L 120.34506966452592,-5.811986800794808 L 113.49417712665218,-11.5622277900496 L 112.79673871055681,-8.644423880299259 A 180.96413686941133 180.96413686941133 0 0 0 94.90907518194817,-11.979517408715253"/><text text-anchor="middle" pointer-events="none" font-size="8px" fill="#000000" x="68.28126994472062" y="-9.585995392546266" transform="rotate(180 68.28126994472062 -12.585995392546266)" font-family="Helvetica Neue, Helvetica, Arial, sans-serif">originalName</text></g><g class="relationship" transform="translate(134.10419307634933 -18.42067357711146) rotate(205.05437730178545)"><path class="b-outline" fill="#F79767" stroke="none" d="M 23.889326612124187,7.436401953852087 L 24.406964702329226,5.50455030127395 A 178.96413686941133 178.96413686941133 0 0 0 39.601409666155035,8.875252429441758 L 39.25357593149988,10.844773105402226 A 180.96413686941133 180.96413686941133 0 0 1 23.889326612124187,7.436401953852087 Z M 97.34555656169516,11.634092968568723 L 97.05136274729936,9.655848797701225 A 178.96413686941133 178.96413686941133 0 0 0 112.33177976649321,6.699221273799033 L 111.63434135039785,3.781417364048692 L 120.34506966452592,5.811986800794808 L 113.49417712665218,11.5622277900496 L 112.79673871055681,8.644423880299259 A 180.96413686941133 180.96413686941133 0 0 1 97.34555656169516,11.634092968568723"/><text text-anchor="middle" pointer-events="none" font-size="8px" fill="#000000" x="68.28126994472063" y="15.585995392546266" transform="rotate(180 68.28126994472063 12.585995392546266)" font-family="Helvetica Neue, Helvetica, Arial, sans-serif">replacedName</text></g><g class="relationship" transform="translate(-130.1900306905197 -28.22996480956152) rotate(338.88657849908327)"><path class="b-outline" fill="#A5ABB6" stroke="none" d="M 23.889326612124187,7.436401953852087 L 24.406964702329226,5.50455030127395 A 175.3577744560473 175.3577744560473 0 0 0 41.09539270549088,9.115595383362233 L 40.76809037946771,11.088631923160676 A 177.3577744560473 177.3577744560473 0 0 1 23.889326612124187,7.436401953852087 Z M 93.99528817371447,11.820622106587592 L 93.72236648410039,9.839331176073301 A 175.3577744560473 175.3577744560473 0 0 0 110.50378409294203,6.688569547634163 L 109.80730705710694,3.7705360079786705 L 118.5173658773017,5.803975298625751 L 111.66457915266717,11.551958780393319 L 110.96810211683209,8.633925240737826 A 177.3577744560473 177.3577744560473 0 0 1 93.99528817371447,11.820622106587592"/><text text-anchor="middle" pointer-events="none" font-size="8px" fill="#000000" x="67.36782129567224" y="15.46304731898033" font-family="Helvetica Neue, Helvetica, Arial, sans-serif">originalName</text></g><g class="relationship" transform="translate(-130.1900306905197 -28.22996480956152) rotate(338.88657849908327)"><path class="b-outline" fill="#F79767" stroke="none" d="M 23.889326612124187,-7.436401953852087 L 24.406964702329226,-5.50455030127395 A 175.3577744560473 175.3577744560473 0 0 1 47.43743906621492,-10.048893237144341 L 47.182469391314825,-12.032574276243452 A 177.3577744560473 177.3577744560473 0 0 0 23.889326612124187,-7.436401953852087 Z M 87.55737728303984,-12.587817412426404 L 87.35705360510494,-10.59787509565976 A 175.3577744560473 175.3577744560473 0 0 1 110.50378409294203,-6.688569547634163 L 109.80730705710694,-3.7705360079786705 L 118.5173658773017,-5.803975298625751 L 111.66457915266717,-11.551958780393319 L 110.96810211683209,-8.633925240737826 A 177.3577744560473 177.3577744560473 0 0 0 87.55737728303984,-12.587817412426404"/><text text-anchor="middle" pointer-events="none" font-size="8px" fill="#000000" x="67.36782129567226" y="-9.46304731898033" font-family="Helvetica Neue, Helvetica, Arial, sans-serif">basionym</text></g></g><g class="layer nodes"><g class="node" aria-label="graph-node461" transform="translate(18.945486987536235,68.42214032711752)"><circle class="b-outline" cx="0" cy="0" r="25" fill="#F79767" stroke="#f36924" stroke-width="2px"/><text class="caption" text-anchor="middle" pointer-events="none" x="0" y="5" font-size="10px" fill="#FFFFFF" font-family="Helvetica Neue, Helvetica, Arial, sans-serif"> </text></g><g class="node" aria-label="graph-node462" transform="translate(134.10419307634933,-18.42067357711146)"><circle class="b-outline" cx="0" cy="0" r="25" fill="#F79767" stroke="#f36924" stroke-width="2px"/><text class="caption" text-anchor="middle" pointer-events="none" x="0" y="5" font-size="10px" fill="#FFFFFF" font-family="Helvetica Neue, Helvetica, Arial, sans-serif"> </text></g><g class="node" aria-label="graph-node463" transform="translate(3.05569688765013,-79.68107537500744)"><circle class="b-outline" cx="0" cy="0" r="25" fill="#F79767" stroke="#f36924" stroke-width="2px"/><text class="caption" text-anchor="middle" pointer-events="none" x="0" y="5" font-size="10px" fill="#FFFFFF" font-family="Helvetica Neue, Helvetica, Arial, sans-serif"> </text></g><g class="node" aria-label="graph-node464" transform="translate(-130.1900306905197,-28.22996480956152)"><circle class="b-outline" cx="0" cy="0" r="25" fill="#F79767" stroke="#f36924" stroke-width="2px"/><text class="caption" text-anchor="middle" pointer-events="none" x="0" y="5" font-size="10px" fill="#FFFFFF" font-family="Helvetica Neue, Helvetica, Arial, sans-serif"> </text></g></g></svg>